<?xml version="1.0" encoding="UTF-8" standalone="no"?>
<svg
   xmlns:dc="http://purl.org/dc/elements/1.1/"
   xmlns:cc="http://creativecommons.org/ns#"
   xmlns:rdf="http://www.w3.org/1999/02/22-rdf-syntax-ns#"
   xmlns:svg="http://www.w3.org/2000/svg"
   xmlns="http://www.w3.org/2000/svg"
   xmlns:sodipodi="http://sodipodi.sourceforge.net/DTD/sodipodi-0.dtd"
   xmlns:inkscape="http://www.inkscape.org/namespaces/inkscape"
   version="1.1"
   id="svg10"
   width="183.67999"
   height="190.72"
   viewBox="0 0 183.67999 190.72"
   sodipodi:docname="bear.svg"
   inkscape:version="1.0.2-2 (e86c870879, 2021-01-15)">
  <metadata
     id="metadata16">
    <rdf:RDF>
      <cc:Work
         rdf:about="">
        <dc:format>image/svg+xml</dc:format>
        <dc:type
           rdf:resource="http://purl.org/dc/dcmitype/StillImage" />
        <dc:title></dc:title>
      </cc:Work>
    </rdf:RDF>
  </metadata>
  <defs
     id="defs14" />
  <sodipodi:namedview
     pagecolor="#ffffff"
     bordercolor="#666666"
     borderopacity="1"
     objecttolerance="10"
     gridtolerance="10"
     guidetolerance="10"
     inkscape:pageopacity="0"
     inkscape:pageshadow="2"
     inkscape:window-width="1920"
     inkscape:window-height="1027"
     id="namedview12"
     showgrid="false"
     inkscape:zoom="3.1551377"
     inkscape:cx="22.754593"
     inkscape:cy="73.932945"
     inkscape:window-x="-8"
     inkscape:window-y="-8"
     inkscape:window-maximized="1"
     inkscape:current-layer="g18" />
  <g
     inkscape:groupmode="layer"
     inkscape:label="Image"
     id="g18">
    <g
       id="g595">
      <g
         id="g502"
         transform="translate(-3.4947535e-7,-0.22411345)">
        <path
           style="fill:#e8a5a5;stroke-width:0.32"
           d="m 93.279995,190.55623 -7.68,0.10863 -0.96,-0.12981 -0.96,-0.12981 -2.879999,-0.35126 -2.88,-0.35127 -3.827514,-0.79745 -3.82751,-0.79746 -3.692489,-1.11747 -3.692486,-1.11748 -3.68,-1.4352 -3.68,-1.43521 -4.279334,-2.22013 -4.279334,-2.22014 -3.560666,-2.35189 -3.560665,-2.35188 -3.04,-2.35849 -3.04,-2.35848 -4.280059,-4.17072 -4.280059,-4.17071 -2.556209,-3.04 -2.556209,-3.04 -2.358207,-3.31228 -2.358207,-3.31227 -2.25235,-3.93773 L 10.866349,140.22 9.3187809,136.91 7.7712137,133.6 6.315248,129.76 4.8592826,125.92 3.8894523,122.56 2.9196217,119.2 2.4356859,117.0886 1.9517501,114.97719 1.3122051,111.1686 0.67266012,107.36 l -0.37888966,-4 -0.37888966,-4 0.19158907,-6.4 0.19158907,-6.4 L 0.79882613,82.918694 1.2995933,79.277389 2.1105511,75.43649 2.921509,71.595587 4.0399979,67.717795 5.1584864,63.84 6.9323263,59.36 8.7061662,54.88 10.833083,50.720336 12.959999,46.560672 16.051134,41.920336 19.142268,37.28 l 2.178836,-2.72 2.178836,-2.72 3.850029,-3.95702 3.850029,-3.957021 3.04,-2.556303 3.04,-2.556303 3.116816,-2.234573 3.116819,-2.234574 3.997692,-2.332965 3.997693,-2.3329664 3.991741,-1.7982458 3.99174,-1.7982458 4.733747,-1.5701728 4.73375,-1.5701726 3.68,-0.8116186 3.68,-0.8116187 3.68,-0.57468161 3.679999,-0.57468161 h 8.16 8.16 l 3.679995,0.57468161 3.68,0.57468161 3.68,0.8116187 3.68,0.8116186 4.73375,1.5701726 4.73375,1.5701728 3.99174,1.7982458 3.99174,1.7982458 3.99769,2.3329664 3.9977,2.332965 3.11682,2.234574 3.11681,2.234573 3.04,2.556303 3.04,2.556303 3.85003,3.957021 3.85003,3.95702 2.17884,2.72 2.17883,2.72 3.09113,4.640336 3.09114,4.640336 2.12692,4.159664 2.12691,4.159664 1.77384,4.48 1.77384,4.48 1.11849,3.877795 1.11849,3.877792 0.81096,3.840903 0.81096,3.840899 0.50076,3.641305 0.50077,3.641306 0.19159,6.4 0.19159,6.4 -0.37889,4 -0.37889,4 -0.63954,3.8086 -0.63955,3.80859 -0.48394,2.11141 -0.48393,2.1114 -0.96983,3.36 -0.96983,3.36 -1.45597,3.84 -1.45596,3.84 -1.54757,3.31 -1.54757,3.31 -2.25235,3.93772 -2.25235,3.93773 -2.3582,3.31227 -2.35821,3.31228 -2.55621,3.04 -2.55621,3.04 -4.28006,4.17071 -4.28006,4.17072 -3.04,2.35848 -3.04,2.35849 -3.56066,2.35188 -3.56067,2.35189 -4.27933,2.2156 -4.27934,2.2156 -3.2,1.26772 -3.2,1.26773 -3.60734,1.14118 -3.60734,1.14118 -3.59266,0.80389 -3.59266,0.80388 -3.2,0.51432 -3.2,0.51433 z M 71.039996,79.04 h 0.32 l 0.64,-0.64 0.64,-0.64 v -0.32 -0.32 l -0.64,-0.64 -0.64,-0.64 h -0.32 -0.32 l -0.64,0.64 -0.64,0.64 v 0.32 0.32 l 0.64,0.64 0.64,0.64 z m 48.639994,0 h 0.32 l 0.64,-0.64 0.64,-0.64 v -0.32 -0.32 l -0.64,-0.64 -0.64,-0.64 h -0.32 -0.32 l -0.64,0.64 -0.64,0.64 v 0.32 0.32 l 0.64,0.64 0.64,0.64 z"
           id="path540" />
        <path
           style="fill:#d9ed48;stroke-width:0.32"
           d="m 91.246091,190.67743 -5.006096,-0.0426 -2.56,-0.2625 -2.559999,-0.2625 -3.2,-0.52293 -3.2,-0.52293 -4.813993,-1.22287 -4.813994,-1.22286 -3.986006,-1.49494 -3.986006,-1.49494 -4.510457,-2.20525 -4.510458,-2.20526 -4.769542,-3.18008 -4.769542,-3.18008 -2.72,-2.17434 -2.72,-2.17434 -4.676737,-4.65453 -4.676738,-4.65452 -2.657873,-3.36 -2.657873,-3.36 -2.179471,-3.30156 -2.179472,-3.30155 -1.817036,-3.23742 L 10.457762,139.402 8.7741397,135.65108 7.0905174,131.90012 5.6511437,127.92954 4.21177,123.95895 2.9108682,118.69948 1.6099666,113.44 0.94819304,108.96 0.28641949,104.48 0.10841814,97.92 -0.06958322,91.36 0.45238593,86.462442 0.97435505,81.564883 1.7590364,77.316317 2.5437177,73.06775 3.6414808,69.253875 4.7392436,65.44 6.2652429,61.296336 7.7912418,57.152675 10.427694,51.856336 13.064146,46.56 l 2.849175,-4.32 2.849176,-4.32 2.289534,-2.846906 2.289534,-2.846902 2.465244,-2.708139 2.465245,-2.708138 3.32359,-3.001089 3.323589,-3.001089 3.639143,-2.733352 3.639142,-2.733352 3.35823,-2.056053 3.358233,-2.056053 3.258602,-1.6352422 3.258601,-1.6352426 3.404406,-1.3941072 3.404407,-1.3941072 3.679999,-1.1131334 3.68,-1.1131334 3.68,-0.8164858 3.68,-0.8164858 3.84,-0.56089446 3.839999,-0.56089445 h 7.2 7.2 l 3.839995,0.56089445 3.84,0.56089446 3.68,0.8164858 3.68,0.8164858 3.68,1.1131334 3.68,1.1131334 3.40441,1.3941072 3.40441,1.3941072 3.2586,1.6352426 3.2586,1.6352422 3.35823,2.056053 3.35823,2.056053 3.63914,2.733352 3.63915,2.733352 3.32359,3.001089 3.32359,3.001089 2.46524,2.708138 2.46524,2.708139 2.28954,2.846902 2.28953,2.846906 2.84918,4.32 2.84917,4.32 2.63645,5.296336 2.63646,5.296339 1.526,4.143661 1.526,4.143664 1.09776,3.813875 1.09776,3.813875 0.78468,4.248567 0.78468,4.248566 0.52197,4.897559 0.52197,4.897558 -0.178,6.56 -0.178,6.56 -0.66177,4.48 -0.66178,4.48 -1.3009,5.25948 -1.3009,5.25947 -1.43937,3.97059 -1.43938,3.97058 -1.68362,3.75096 -1.68362,3.75096 -1.81704,3.23743 -1.81703,3.23742 -2.17947,3.30155 -2.17948,3.30156 -2.65787,3.36 -2.65787,3.36 -4.67674,4.65452 -4.67674,4.65453 -2.72,2.17434 -2.72,2.17434 -4.76954,3.18008 -4.76954,3.18008 -4.51046,2.20526 -4.51046,2.20525 -3.986,1.49494 -3.98601,1.49494 -4.81399,1.22109 -4.814,1.2211 -3.04,0.50025 -3.04,0.50024 -3.313899,0.32952 -3.313907,0.32952 z M 70.984396,79.04 h 0.485207 l 0.585196,-0.529597 0.585197,-0.529597 V 77.4956 77.010394 L 72.110399,76.425197 71.580803,75.84 H 71.095596 70.61039 l -0.585197,0.529597 -0.585197,0.529597 V 77.3844 77.869606 L 69.969593,78.454803 70.49919,79.04 Z m 48.639994,0 h 0.48521 l 0.5852,-0.529597 0.58519,-0.529597 V 77.4956 77.010394 L 120.7504,76.425197 120.2208,75.84 h -0.48521 -0.4852 l -0.5852,0.529597 -0.5852,0.529597 v 0.485206 0.485206 l 0.5296,0.585197 0.5296,0.585197 z"
           id="path538" />
        <path
           style="fill:#efe91a;stroke-width:0.32"
           d="m 91.246091,190.67743 -5.006096,-0.0426 -2.56,-0.2625 -2.559999,-0.2625 -3.2,-0.52293 -3.2,-0.52293 -4.813993,-1.22287 -4.813994,-1.22286 -3.986006,-1.49494 -3.986006,-1.49494 -4.510457,-2.20525 -4.510458,-2.20526 -4.769542,-3.18008 -4.769542,-3.18008 -2.72,-2.17434 -2.72,-2.17434 -4.676737,-4.65453 -4.676738,-4.65452 -2.657873,-3.36 -2.657873,-3.36 -2.179471,-3.30156 -2.179472,-3.30155 -1.817036,-3.23742 L 10.457762,139.402 8.7741397,135.65108 7.0905174,131.90012 5.6511437,127.92954 4.21177,123.95895 2.910622,118.69948 1.6094742,113.44 l -0.65014622,-4.54739 -0.6501462,-4.54739 -0.20420956,-4.489137 -0.20420956,-4.489136 13.72961834,-0.087 13.729618,-0.087 -13.68,-0.07647 L 0,95.04 7.7692156e-4,94.32 0.00155384,93.6 0.32900075,89.28 0.65644768,84.96 1.1451611,81.6 1.6338746,78.24 2.4508312,74.56 3.267788,70.88 4.5607876,66.56 5.8537872,62.24 7.2278159,58.815949 8.6018443,55.391894 10.843038,50.974954 13.084231,46.55801 15.923364,42.239005 18.762497,37.92 l 2.289534,-2.846906 2.289534,-2.846902 2.465244,-2.708139 2.465245,-2.708138 3.32359,-3.001089 3.323589,-3.001089 3.639143,-2.733352 3.639142,-2.733352 3.35823,-2.056053 3.358233,-2.056053 3.258602,-1.6352422 3.258601,-1.6352426 3.404406,-1.3941072 3.404407,-1.3941072 3.679999,-1.1131334 3.68,-1.1131334 3.68,-0.8164858 3.68,-0.8164858 3.84,-0.56089446 3.839999,-0.56089445 h 7.2 7.2 l 3.839995,0.56089445 3.84,0.56089446 3.68,0.8164858 3.68,0.8164858 3.68,1.1131334 3.68,1.1131334 3.40441,1.3941072 3.40441,1.3941072 3.2586,1.6352426 3.2586,1.6352422 3.35823,2.056053 3.35823,2.056053 3.63914,2.733352 3.63915,2.733352 3.32359,3.001089 3.32359,3.001089 2.46524,2.708138 2.46524,2.708139 2.28954,2.846902 2.28953,2.846906 2.84037,4.32 2.84037,4.32 2.3414,4.64 2.34138,4.64 1.20919,3.04 1.20919,3.04 1.08362,3.52 1.08361,3.52 0.7655,3.04 0.76549,3.04 0.51166,2.72 0.51166,2.72 0.62808,5.28 0.62808,5.28 0.002,1.996563 0.002,1.996567 -13.68,0.08696 -13.67999,0.08696 13.72977,0.07647 13.72978,0.07647 -0.20437,4.492611 -0.20437,4.492609 -0.65014,4.54739 -0.65015,4.54739 -1.30115,5.25948 -1.30115,5.25947 -1.43937,3.97059 -1.43937,3.97058 -1.68363,3.75096 -1.68362,3.75096 -1.81704,3.23743 -1.81703,3.23742 -2.17947,3.30155 -2.17947,3.30156 -2.65788,3.36 -2.65787,3.36 -4.67674,4.65452 -4.67673,4.65453 -2.72,2.17434 -2.72,2.17434 -4.76955,3.18008 -4.76954,3.18008 -4.51046,2.20526 -4.51045,2.20525 -3.98601,1.49494 -3.98601,1.49494 -4.81399,1.22109 -4.81399,1.2211 -3.04,0.50025 -3.04,0.50024 -3.313905,0.32952 -3.314211,0.32952 z M 70.984396,79.04 h 0.485207 l 0.585196,-0.529597 0.585197,-0.529597 V 77.4956 77.010394 L 72.110399,76.425197 71.580803,75.84 H 71.095596 70.61039 l -0.585197,0.529597 -0.585197,0.529597 V 77.3844 77.869606 L 69.969593,78.454803 70.49919,79.04 Z m 48.639994,0 h 0.48521 l 0.5852,-0.529597 0.58519,-0.529597 V 77.4956 77.010394 L 120.7504,76.425197 120.2208,75.84 h -0.48521 -0.4852 l -0.5852,0.529597 -0.5852,0.529597 v 0.485206 0.485206 l 0.5296,0.585197 0.5296,0.585197 z"
           id="path536" />
        <path
           style="fill:#aa9a95;stroke-width:0.32"
           d="m 91.246091,190.67743 -5.006096,-0.0426 -2.56,-0.2625 -2.559999,-0.2625 -3.2,-0.52293 -3.2,-0.52293 -4.813993,-1.22287 -4.813994,-1.22286 -3.986006,-1.49494 -3.986006,-1.49494 -4.510457,-2.20525 -4.510458,-2.20526 -4.769542,-3.18008 -4.769542,-3.18008 -2.72,-2.17434 -2.72,-2.17434 -4.676737,-4.65453 -4.676738,-4.65452 -2.657873,-3.36 -2.657873,-3.36 -2.179471,-3.30156 -2.179472,-3.30155 -1.817036,-3.23742 L 10.457762,139.402 8.7741397,135.65108 7.0905174,131.90012 5.6511437,127.92954 4.21177,123.95895 2.910622,118.69948 1.6094742,113.44 0.95932798,108.89261 0.30918178,104.34522 0.1048142,99.852611 -0.09955338,95.36 H 13.504337 27.108227 l 0.211516,-5.68 0.211516,-5.68 0.178578,-1.12 0.178577,-1.12 -0.927059,-0.544333 -0.92706,-0.544333 -2.145434,-2.145436 -2.145434,-2.145434 -1.417419,-2.274157 -1.41742,-2.274153 -0.838317,-2.227207 -0.838317,-2.227203 -0.389911,-1.92887 L 16.452132,63.52 10.970378,63.36 5.4886243,63.2 7.0196099,59.346448 8.5505954,55.492896 10.817413,51.025453 13.084231,46.55801 15.923364,42.239005 18.762497,37.92 l 2.289534,-2.846906 2.289534,-2.846902 2.465244,-2.708139 2.465245,-2.708138 3.32359,-3.001089 3.323589,-3.001089 3.639143,-2.733352 3.639142,-2.733352 3.35823,-2.056053 3.358233,-2.056053 3.258602,-1.6352422 3.258601,-1.6352426 3.404406,-1.3941072 3.404407,-1.3941072 3.679999,-1.1131334 3.68,-1.1131334 3.68,-0.8164858 3.68,-0.8164858 3.84,-0.56089446 3.839999,-0.56089445 h 7.2 7.2 l 3.839995,0.56089445 3.84,0.56089446 3.68,0.8164858 3.68,0.8164858 3.68,1.1131334 3.68,1.1131334 3.40441,1.3941072 3.40441,1.3941072 3.2586,1.6352426 3.2586,1.6352422 3.35823,2.056053 3.35823,2.056053 3.63914,2.733352 3.63915,2.733352 3.32359,3.001089 3.32359,3.001089 2.46524,2.708138 2.46524,2.708139 2.28954,2.846902 2.28953,2.846906 2.83914,4.319005 2.83913,4.319005 2.26682,4.467443 2.26682,4.467443 1.53098,3.853552 1.53099,3.853552 -5.48176,0.16 -5.48175,0.16 -0.38991,1.928874 -0.38991,1.92887 -0.83832,2.227203 -0.83832,2.227207 -1.41742,2.274153 -1.41742,2.274157 -2.14543,2.145434 -2.14544,2.145436 -0.92706,0.544333 -0.92705,0.544333 0.17857,1.12 0.17858,1.12 0.21152,5.68 0.21151,5.68 h 13.60389 13.60389 l -0.20436,4.492611 -0.20437,4.492609 -0.65015,4.54739 -0.65015,4.54739 -1.30114,5.25948 -1.30115,5.25947 -1.43937,3.97059 -1.43938,3.97058 -1.68362,3.75096 -1.68362,3.75096 -1.81704,3.23743 -1.81703,3.23742 -2.17947,3.30155 -2.17948,3.30156 -2.65787,3.36 -2.65787,3.36 -4.67674,4.65452 -4.67674,4.65453 -2.72,2.17434 -2.72,2.17434 -4.76954,3.18008 -4.76954,3.18008 -4.51046,2.20526 -4.51046,2.20525 -3.986,1.49494 -3.98601,1.49494 -4.81399,1.22109 -4.814,1.2211 -3.04,0.50025 -3.04,0.50024 -3.313899,0.32952 -3.313907,0.32952 z M 70.984396,79.04 h 0.485207 l 0.585196,-0.529597 0.585197,-0.529597 V 77.4956 77.010394 L 72.110399,76.425197 71.580803,75.84 H 71.095596 70.61039 l -0.585197,0.529597 -0.585197,0.529597 V 77.3844 77.869606 L 69.969593,78.454803 70.49919,79.04 Z m 48.639994,0 h 0.48521 l 0.5852,-0.529597 0.58519,-0.529597 V 77.4956 77.010394 L 120.7504,76.425197 120.2208,75.84 h -0.48521 -0.4852 l -0.5852,0.529597 -0.5852,0.529597 v 0.485206 0.485206 l 0.5296,0.585197 0.5296,0.585197 z"
           id="path534" />
        <path
           style="fill:#db9852;stroke-width:0.32"
           d="m 93.279995,190.55475 -6.4,0.11334 -0.96,-0.1339 -0.96,-0.13391 -3.039999,-0.34097 -3.04,-0.34096 -4,-0.7952 -4,-0.79519 -3.36,-0.97362 -3.359999,-0.97362 -3.84,-1.45312 -3.84,-1.45313 -3.799062,-1.89928 -3.799066,-1.89929 -2.920934,-1.8023 -2.920937,-1.8023 -2.685747,-1.90383 -2.685747,-1.90384 -2.914253,-2.41323 -2.914253,-2.41324 -3.842507,-3.85858 -3.842508,-3.85858 -2.686788,-3.36 -2.686789,-3.36 -2.636578,-4 -2.636578,-4 -1.581321,-2.88 -1.581322,-2.88 L 9.0308699,136.16 7.7161324,133.28 6.4049485,129.92 5.0937642,126.56 4.0076366,122.8422 2.921509,119.12441 2.1110057,115.28566 1.3005024,111.44692 0.80518527,107.66843 0.30986812,103.88993 0.105324,99.624966 -0.09922012,95.36 H 13.504504 27.108227 l 0.211516,-5.68 0.211516,-5.68 0.178578,-1.12 0.178577,-1.12 -0.927059,-0.544333 -0.92706,-0.544333 -2.145434,-2.145436 -2.145434,-2.145434 -1.417419,-2.274157 -1.41742,-2.274153 -0.838317,-2.227207 -0.838317,-2.227203 -0.389911,-1.92887 L 16.452132,63.52 10.970378,63.36 5.4886243,63.2 7.0196099,59.346448 8.5505954,55.492896 10.817413,51.025453 13.084231,46.55801 15.923364,42.239005 18.762497,37.92 l 2.289534,-2.846906 2.289534,-2.846902 2.465244,-2.708139 2.465245,-2.708138 3.32359,-3.001089 3.323589,-3.001089 3.639143,-2.733352 3.639142,-2.733352 3.35823,-2.056053 3.358233,-2.056053 3.258602,-1.6352422 3.258601,-1.6352426 3.404406,-1.3941072 3.404407,-1.3941072 3.679999,-1.1131334 3.68,-1.1131334 3.68,-0.8164858 3.68,-0.8164858 3.84,-0.56089446 3.839999,-0.56089445 h 7.2 7.2 l 3.839995,0.56089445 3.84,0.56089446 3.68,0.8164858 3.68,0.8164858 3.68,1.1131334 3.68,1.1131334 3.40441,1.3941072 3.40441,1.3941072 3.2586,1.6352426 3.2586,1.6352422 3.35823,2.056053 3.35823,2.056053 3.63914,2.733352 3.63915,2.733352 3.32359,3.001089 3.32359,3.001089 2.46524,2.708138 2.46524,2.708139 2.28954,2.846902 2.28953,2.846906 2.83914,4.319005 2.83913,4.319005 2.26682,4.467443 2.26682,4.467443 1.53098,3.853552 1.53099,3.853552 -5.48176,0.16 -5.48175,0.16 -0.38991,1.928874 -0.38991,1.92887 -0.83832,2.227203 -0.83832,2.227207 -1.41742,2.274153 -1.41742,2.274157 -2.14543,2.145434 -2.14544,2.145436 -0.92706,0.544333 -0.92705,0.544333 0.17857,1.12 0.17858,1.12 0.21152,5.68 0.21151,5.68 h 13.60373 13.60372 l -0.20454,4.264966 -0.20455,4.264964 -0.49531,3.7785 -0.49532,3.77849 -0.8105,3.83874 -0.81051,3.83875 -1.08613,3.71779 -1.08612,3.7178 -1.31119,3.36 -1.31118,3.36 -1.31474,2.88 -1.31474,2.88 -1.58132,2.88 -1.58132,2.88 -2.63658,4 -2.63658,4 -2.68678,3.36 -2.68679,3.36 -3.84251,3.85858 -3.84251,3.85858 -2.91425,2.41324 -2.91425,2.41323 -2.68575,1.90384 -2.68575,1.90383 -2.91909,1.80116 -2.9191,1.80116 -3.6409,1.82617 -3.64091,1.82616 -3.62779,1.40227 -3.62778,1.40227 -3.25222,0.96904 -3.25221,0.96904 -2.88,0.64829 -2.88,0.64828 -4.16,0.63813 -4.159995,0.63813 z M 71.039996,79.04 h 0.594285 l 0.502857,-0.502858 0.502858,-0.502857 V 77.44 76.845715 L 72.137138,76.342858 71.634281,75.84 h -0.594285 -0.594285 l -0.502857,0.502858 -0.502858,0.502857 V 77.44 78.034285 l 0.502858,0.502857 0.502857,0.502858 z m 48.639994,0 h 0.59429 l 0.50286,-0.502858 0.50285,-0.502857 V 77.44 76.845715 L 120.77714,76.342858 120.27428,75.84 h -0.59429 -0.59428 l -0.50286,0.502858 -0.50286,0.502857 V 77.44 78.034285 l 0.50286,0.502857 0.50286,0.502858 z"
           id="path532" />
        <path
           style="fill:#6da6a3;stroke-width:0.32"
           d="m 93.279995,190.55475 -6.4,0.11334 -0.96,-0.1339 -0.96,-0.13391 -3.039999,-0.34097 -3.04,-0.34096 -4,-0.7952 -4,-0.79519 -3.36,-0.97362 -3.359999,-0.97362 -3.84,-1.45312 -3.84,-1.45313 -3.799062,-1.89928 -3.799066,-1.89929 -2.920934,-1.8023 -2.920937,-1.8023 -2.685747,-1.90383 -2.685747,-1.90384 -2.914253,-2.41323 -2.914253,-2.41324 -3.842507,-3.85858 -3.842508,-3.85858 -2.686788,-3.36 -2.686789,-3.36 -2.636578,-4 -2.636578,-4 -1.581321,-2.88 -1.581322,-2.88 L 9.0308699,136.16 7.7161324,133.28 6.4049485,129.92 5.0937642,126.56 4.0076366,122.8422 2.921509,119.12441 2.1110057,115.28566 1.3005024,111.44692 0.80518527,107.66843 0.30986812,103.88993 0.105324,99.624966 -0.09922012,95.36 H 13.503515 27.10625 l 0.20274,-5.36 0.202739,-5.36 0.198403,-1.4548 0.198402,-1.454797 -1.234268,-0.831021 -1.234267,-0.831017 -1.12,-1.079824 -1.12,-1.079824 L 22.367923,76.930915 21.535846,75.953114 20.106097,73.576557 18.676348,71.2 17.944004,69.21296 17.211661,67.22592 16.84583,65.37296 16.479999,63.52 l -5.36,-0.08774 -5.3599993,-0.08774 v -0.3144 -0.3144 L 6.9172934,59.757862 8.0745871,56.8 l 2.0117969,-4.16 2.011797,-4.16 1.836082,-3.04 1.836082,-3.04 1.937808,-2.72 1.937808,-2.72 1.877574,-2.32 1.877574,-2.32 h 0.299445 0.299445 v -0.412599 -0.412599 l 2.146696,-2.352078 2.146697,-2.352077 3.312921,-2.991455 3.31292,-2.991455 3.639143,-2.733352 3.639142,-2.733352 3.35823,-2.056053 3.358233,-2.056053 3.258602,-1.6352422 3.258601,-1.6352426 3.404406,-1.3941072 3.404407,-1.3941072 3.679999,-1.1131334 3.68,-1.1131334 3.68,-0.8164858 3.68,-0.8164858 3.84,-0.56089446 3.839999,-0.56089445 h 7.2 7.2 l 3.839995,0.56089445 3.84,0.56089446 3.68,0.8164858 3.68,0.8164858 3.68,1.1131334 3.68,1.1131334 3.40441,1.3941072 3.40441,1.3941072 3.2586,1.6352426 3.2586,1.6352422 3.35823,2.056053 3.35823,2.056053 3.63914,2.733352 3.63915,2.733352 3.31292,2.991455 3.31292,2.991455 2.14669,2.352077 2.1467,2.352078 V 31.907401 32.32 h 0.29944 0.29945 l 1.87758,2.32 1.87757,2.32 1.93781,2.72 1.93781,2.72 1.83608,3.04 1.83608,3.04 2.0118,4.16 2.01179,4.16 1.1573,2.957862 1.15729,2.957863 v 0.3144 0.3144 l -5.36,0.08774 -5.36,0.08774 -0.36583,1.85296 -0.36583,1.85296 -0.73235,1.98704 -0.73234,1.98704 -1.42975,2.376557 -1.42975,2.376557 -0.83207,0.977801 -0.83208,0.977802 -1.12,1.079824 -1.12,1.079824 -1.23427,0.831017 -1.23426,0.831021 0.1984,1.454797 0.1984,1.4548 0.20274,5.36 0.20274,5.36 h 13.60273 13.60274 l -0.20454,4.264966 -0.20455,4.264969 -0.49531,3.7785 -0.49532,3.77849 -0.8105,3.83874 -0.81051,3.83875 -1.08613,3.71779 -1.08612,3.7178 -1.31119,3.35999 -1.31118,3.36001 -1.31474,2.87999 -1.31474,2.88 -1.58132,2.88 -1.58132,2.88 -2.63658,4 -2.63658,4 -2.68678,3.36 -2.68679,3.36001 -3.84251,3.85858 -3.84251,3.85857 -2.91425,2.41324 -2.91425,2.41323 -2.68575,1.90384 -2.68575,1.90383 -2.91909,1.80117 -2.9191,1.80116 -3.6409,1.82617 -3.64091,1.82615 -3.62779,1.40227 -3.62778,1.40227 -3.25222,0.96904 -3.25221,0.96904 -2.88,0.64829 -2.88,0.64828 -4.16,0.63813 -4.159995,0.63813 z m -0.64,-60.43517 7.999995,-0.078 2.5851,-0.85735 2.58509,-0.85735 1.99826,-1.29154 1.99826,-1.29154 1.56853,-1.56853 1.56853,-1.56853 1.2776,-1.97669 1.2776,-1.9767 0.67872,-1.80666 0.67873,-1.80666 0.45179,-2.34815 0.45179,-2.34815 V 103.52 96.696301 l -0.46215,-2.415456 -0.46215,-2.415459 -0.74942,-1.85537 -0.74942,-1.85537 -1.19544,-1.801011 -1.19544,-1.801011 -1.56864,-1.593574 -1.56864,-1.593575 -1.97398,-1.318176 -1.97399,-1.318179 -2.61036,-0.86424 -2.61037,-0.86424 -7.679995,-0.124925 -7.68,-0.124925 -2.24,0.474749 -2.239999,0.474752 -1.858823,0.699888 -1.858822,0.699888 -2.290589,1.723175 -2.290585,1.723174 -1.665994,2.077565 -1.665996,2.077561 -0.977677,2.009229 -0.977677,2.009229 -0.537952,1.92 -0.537952,1.92 -0.13752,7.71696 -0.13752,7.71697 0.479315,2.52303 0.479316,2.52304 0.679756,1.80666 0.679757,1.80666 1.277597,1.9767 1.277597,1.97669 1.568531,1.56853 1.568531,1.56853 1.962412,1.26837 1.96241,1.26837 2.002921,0.66652 2.002922,0.66653 1.418022,0.29203 1.418019,0.29203 z m -0.8,-31.910575 -3.68,-0.01987 -2.013238,-0.437162 -2.013242,-0.437165 -1.744799,-0.798796 -1.744804,-0.798797 -0.801958,-0.865328 -0.801958,-0.865341 V 92.8 91.613456 l 0.801958,-0.865328 0.801958,-0.865328 1.730909,-0.792435 1.730909,-0.792439 2.187133,-0.463404 2.187132,-0.463408 h 3.52 3.52 l 2.187132,0.463408 2.187133,0.463404 1.73091,0.792439 1.73091,0.792435 0.80196,0.865328 0.80195,0.865328 V 92.8 93.986544 l -0.80195,0.865328 -0.80196,0.865328 -1.73091,0.792435 -1.73091,0.792439 -2.187133,0.463404 -2.187132,0.463408 -3.68,-0.01987 z M 71.039996,79.04 h 0.594285 l 0.502857,-0.502858 0.502858,-0.502857 V 77.44 76.845715 L 72.137138,76.342858 71.634281,75.84 h -0.594285 -0.594285 l -0.502857,0.502858 -0.502858,0.502857 V 77.44 78.034285 l 0.502858,0.502857 0.502857,0.502858 z m 48.639994,0 h 0.59429 l 0.50286,-0.502858 0.50285,-0.502857 V 77.44 76.845715 L 120.77714,76.342858 120.27428,75.84 h -0.59429 -0.59428 l -0.50286,0.502858 -0.50286,0.502857 V 77.44 78.034285 l 0.50286,0.502857 0.50286,0.502858 z m -88.035408,-11.212096 0.195416,-0.0121 1.509344,-3.154858 1.509341,-3.15486 2.25119,-3.366586 2.25119,-3.366586 3.229799,-3.382848 3.229798,-3.382848 -0.910333,-0.378828 -0.910329,-0.378832 -2.72,-0.0013 -2.72,-0.0013 -1.838931,0.719126 -1.838931,0.719126 -1.707507,1.560567 -1.707509,1.560566 -0.991508,1.860256 -0.991507,1.860259 -0.397366,2.156586 -0.397366,2.156582 0.397366,2.156583 0.397366,2.156585 0.982531,1.843415 0.982531,1.843417 0.195415,-0.0121 z m 120.390828,0 0.19541,0.0121 0.98253,-1.843418 0.98254,-1.843414 0.39736,-2.156586 0.39737,-2.156582 -0.39737,-2.156582 -0.39736,-2.156586 -0.99151,-1.860259 -0.99151,-1.860256 -1.70751,-1.560567 -1.70751,-1.560566 -1.83893,-0.719126 -1.83893,-0.719127 -2.72,0.0013 -2.72,0.0013 -0.91033,0.378832 -0.91033,0.378829 3.2298,3.382848 3.2298,3.382848 2.25119,3.366586 2.25119,3.366585 1.50934,3.154861 1.50934,3.154858 0.19542,0.0121 z"
           id="path530" />
        <path
           style="fill:#f79420;stroke-width:0.32"
           d="m 93.279995,190.55475 -6.4,0.11334 -0.96,-0.1339 -0.96,-0.13391 -3.039999,-0.34097 -3.04,-0.34096 -4,-0.7952 -4,-0.79519 -3.36,-0.97362 -3.359999,-0.97362 -3.84,-1.45312 -3.84,-1.45313 -3.799062,-1.89928 -3.799066,-1.89929 -2.920934,-1.8023 -2.920937,-1.8023 -2.685747,-1.90383 -2.685747,-1.90384 -2.914253,-2.41323 -2.914253,-2.41324 -3.842507,-3.85858 -3.842508,-3.85858 -2.679323,-3.36 -2.679322,-3.36 -1.948039,-2.88 -1.948039,-2.88 -1.21142,-2.24 -1.21142,-2.24 -1.877369,-3.68 L 8.7226818,135.2 7.2255228,131.36 5.7283642,127.52 5.4348029,126.98135 5.1412416,126.4427 4.0419655,122.66 2.9426898,118.8773 2.1221824,114.87865 1.301675,110.88 0.83214411,107.04 0.36261316,103.2 0.13597446,99.28 -0.09066425,95.36 H 13.507793 27.10625 l 0.20274,-5.36 0.202739,-5.36 0.198403,-1.4548 0.198402,-1.454797 -1.234268,-0.831021 -1.234267,-0.831017 -1.12,-1.079824 -1.12,-1.079824 L 22.367923,76.930915 21.535846,75.953114 20.106097,73.576557 18.676348,71.2 17.944004,69.21296 17.211661,67.22592 16.84583,65.37296 16.479999,63.52 l -5.36,-0.08774 -5.3599993,-0.08774 v -0.3144 -0.3144 L 6.9172934,59.757862 8.0745871,56.8 l 2.0117969,-4.16 2.011797,-4.16 1.836082,-3.04 1.836082,-3.04 1.937808,-2.72 1.937808,-2.72 1.877574,-2.32 1.877574,-2.32 h 0.299445 0.299445 v -0.412599 -0.412599 l 2.146696,-2.352078 2.146697,-2.352077 3.312921,-2.991455 3.31292,-2.991455 3.639143,-2.733352 3.639142,-2.733352 3.35823,-2.056053 3.358233,-2.056053 3.258602,-1.6352422 3.258601,-1.6352426 3.404406,-1.3941072 3.404407,-1.3941072 3.679999,-1.1131334 3.68,-1.1131334 3.68,-0.8164858 3.68,-0.8164858 3.84,-0.56089446 3.839999,-0.56089445 h 7.2 7.2 l 3.839995,0.56089445 3.84,0.56089446 3.68,0.8164858 3.68,0.8164858 3.68,1.1131334 3.68,1.1131334 3.40441,1.3941072 3.40441,1.3941072 3.2586,1.6352426 3.2586,1.6352422 3.35823,2.056053 3.35823,2.056053 3.63914,2.733352 3.63915,2.733352 3.31292,2.991455 3.31292,2.991455 2.14669,2.352077 2.1467,2.352078 V 31.907401 32.32 h 0.29944 0.29945 l 1.87758,2.32 1.87757,2.32 1.93781,2.72 1.93781,2.72 1.83608,3.04 1.83608,3.04 2.0118,4.16 2.01179,4.16 1.1573,2.957862 1.15729,2.957863 v 0.3144 0.3144 l -5.36,0.08774 -5.36,0.08774 -0.36583,1.85296 -0.36583,1.85296 -0.73235,1.98704 -0.73234,1.98704 -1.42975,2.376557 -1.42975,2.376557 -0.83207,0.977801 -0.83208,0.977802 -1.12,1.079824 -1.12,1.079824 -1.23427,0.831017 -1.23426,0.831021 0.1984,1.454797 0.1984,1.4548 0.20274,5.36 0.20274,5.36 h 13.55312 13.55313 v 2.160429 2.160425 l -0.63068,5.517631 -0.63069,5.51763 -0.84066,4.08059 -0.84066,4.08059 -1.09927,3.7827 -1.09928,3.78271 -0.29356,0.53865 -0.29356,0.53865 -1.49716,3.83999 -1.49716,3.84 -1.87737,3.68 -1.87737,3.68001 -1.21142,2.24 -1.21142,2.24 -1.94804,2.88 -1.94804,2.88 -2.67932,3.36 -2.67932,3.36 -3.84251,3.85858 -3.84251,3.85858 -2.91425,2.41324 -2.91425,2.41323 -2.68575,1.90384 -2.68575,1.90383 -2.91909,1.80116 -2.9191,1.80116 -3.6409,1.82617 -3.64091,1.82616 -3.62779,1.40227 -3.62778,1.40226 -3.25222,0.96905 -3.25221,0.96904 -2.88,0.64829 -2.88,0.64828 -4.16,0.63813 -4.159995,0.63812 z m -0.64,-60.43517 7.999995,-0.078 2.5851,-0.85735 2.58509,-0.85735 1.99826,-1.29154 1.99826,-1.29154 1.56853,-1.56853 1.56853,-1.56853 1.2776,-1.97669 1.2776,-1.9767 0.67872,-1.80666 0.67873,-1.80666 0.45179,-2.34815 0.45179,-2.34815 V 103.52 96.696301 l -0.46215,-2.415456 -0.46215,-2.415459 -0.74942,-1.85537 -0.74942,-1.85537 -1.19544,-1.801011 -1.19544,-1.801011 -1.56864,-1.593574 -1.56864,-1.593575 -1.97398,-1.318176 -1.97399,-1.318179 -2.61036,-0.86424 -2.61037,-0.86424 -7.679995,-0.124925 -7.68,-0.124925 -2.24,0.474749 -2.239999,0.474752 -1.858823,0.699888 -1.858822,0.699888 -2.290589,1.723175 -2.290585,1.723174 -1.665994,2.077565 -1.665996,2.077561 -0.977677,2.009229 -0.977677,2.009229 -0.537952,1.92 -0.537952,1.92 -0.13752,7.71696 -0.13752,7.71697 0.479315,2.52303 0.479316,2.52304 0.679756,1.80666 0.679757,1.80666 1.277597,1.9767 1.277597,1.97669 1.568531,1.56853 1.568531,1.56853 1.962412,1.26837 1.96241,1.26837 2.002921,0.66652 2.002922,0.66653 1.418022,0.29203 1.418019,0.29203 z m -0.8,-31.910575 -3.68,-0.01987 -2.013238,-0.437162 -2.013242,-0.437165 -1.744799,-0.798796 -1.744804,-0.798797 -0.801958,-0.865328 -0.801958,-0.865341 V 92.8 91.613456 l 0.801958,-0.865328 0.801958,-0.865328 1.730909,-0.792435 1.730909,-0.792439 2.187133,-0.463404 2.187132,-0.463408 h 3.52 3.52 l 2.187132,0.463408 2.187133,0.463404 1.73091,0.792439 1.73091,0.792435 0.80196,0.865328 0.80195,0.865328 V 92.8 93.986544 l -0.80195,0.865328 -0.80196,0.865328 -1.73091,0.792435 -1.73091,0.792439 -2.187133,0.463404 -2.187132,0.463408 -3.68,-0.01987 z M 71.039996,79.04 h 0.594285 l 0.502857,-0.502858 0.502858,-0.502857 V 77.44 76.845715 L 72.137138,76.342858 71.634281,75.84 h -0.594285 -0.594285 l -0.502857,0.502858 -0.502858,0.502857 V 77.44 78.034285 l 0.502858,0.502857 0.502857,0.502858 z m 48.639994,0 h 0.59429 l 0.50286,-0.502858 0.50285,-0.502857 V 77.44 76.845715 L 120.77714,76.342858 120.27428,75.84 h -0.59429 -0.59428 l -0.50286,0.502858 -0.50286,0.502857 V 77.44 78.034285 l 0.50286,0.502857 0.50286,0.502858 z m -88.035408,-11.212096 0.195416,-0.0121 1.509344,-3.154858 1.509341,-3.15486 2.25119,-3.366586 2.25119,-3.366586 3.229799,-3.382848 3.229798,-3.382848 -0.910333,-0.378828 -0.910329,-0.378832 -2.72,-0.0013 -2.72,-0.0013 -1.838931,0.719126 -1.838931,0.719126 -1.707507,1.560567 -1.707509,1.560566 -0.991508,1.860256 -0.991507,1.860259 -0.397366,2.156586 -0.397366,2.156582 0.397366,2.156583 0.397366,2.156585 0.982531,1.843415 0.982531,1.843417 0.195415,-0.0121 z m 120.390828,0 0.19541,0.0121 0.98253,-1.843418 0.98254,-1.843414 0.39736,-2.156586 0.39737,-2.156582 -0.39737,-2.156582 -0.39736,-2.156586 -0.99151,-1.860259 -0.99151,-1.860256 -1.70751,-1.560567 -1.70751,-1.560566 -1.83893,-0.719126 -1.83893,-0.719127 -2.72,0.0013 -2.72,0.0013 -0.91033,0.378832 -0.91033,0.378829 3.2298,3.382848 3.2298,3.382848 2.25119,3.366586 2.25119,3.366585 1.50934,3.154861 1.50934,3.154858 0.19542,0.0121 z"
           id="path528" />
        <path
           style="fill:#f0585a;stroke-width:0.32"
           d="m 93.279995,190.55475 -6.4,0.11334 -0.96,-0.1339 -0.96,-0.13391 -3.039999,-0.34097 -3.04,-0.34096 -4,-0.7952 -4,-0.79519 -3.36,-0.97362 -3.359999,-0.97362 -3.84,-1.45312 -3.84,-1.45313 -3.799062,-1.89928 -3.799066,-1.89929 -2.920934,-1.8023 -2.920937,-1.8023 -2.685747,-1.90383 -2.685747,-1.90384 -2.914253,-2.41323 -2.914253,-2.41324 -3.842507,-3.85858 -3.842508,-3.85858 -2.679323,-3.36 -2.679322,-3.36 -1.948039,-2.88 -1.948039,-2.88 -1.21142,-2.24 -1.21142,-2.24 -1.877369,-3.68 L 8.7226818,135.2 7.2255228,131.36 5.7283642,127.52 5.4348029,126.98135 5.1412416,126.4427 4.0419655,122.66 2.9426898,118.8773 2.1221824,114.87865 1.301675,110.88 0.83214411,107.04 0.36261316,103.2 0.13597446,99.28 -0.09066425,95.36 H 13.554667 27.199999 v -3.50745 -3.507449 l 0.357047,-3.282039 0.357048,-3.282038 -0.757048,-0.486106 -0.757047,-0.486102 -1.877525,-1.76441 L 22.64495,77.28 21.235,75.30889 19.82505,73.337776 18.694771,70.891437 17.564492,68.445094 16.949171,65.662547 16.33385,62.88 l -0.0069,-2.77185 -0.0069,-2.771849 0.460254,-2.40553 0.460253,-2.405526 0.992621,-2.478954 0.992621,-2.478953 1.399574,-2.103671 1.399573,-2.103667 2.083291,-2.054784 2.083292,-2.054781 1.70426,-1.090771 1.70426,-1.090771 1.76,-0.795495 1.76,-0.795497 2.56,-0.616707 2.56,-0.616711 h 2.88 2.88 l 2.659215,0.637507 2.65922,0.637508 2.30078,1.13014 2.300784,1.130144 1.566883,1.190109 1.56688,1.190109 0.403334,0.299574 0.403335,0.299578 2.862134,-0.877974 2.862138,-0.877978 2.527647,-0.450435 2.527648,-0.450435 h 23.199999 23.199994 l 2.52765,0.450435 2.52765,0.450435 2.86214,0.877978 2.86213,0.877974 0.40334,-0.299578 0.40333,-0.299574 1.56688,-1.190109 1.56688,-1.190109 2.30079,-1.130144 2.30078,-1.13014 2.65922,-0.637508 2.65921,-0.637507 h 2.88 2.88 l 2.56,0.616711 2.56,0.616707 1.76,0.795497 1.76,0.795495 1.70426,1.090771 1.70426,1.090771 2.08329,2.054781 2.0833,2.054784 1.39957,2.103667 1.39957,2.103671 0.99262,2.478953 0.99263,2.478954 0.46025,2.405526 0.46025,2.40553 -0.007,2.771849 -0.007,2.77185 -0.61532,2.782547 -0.61533,2.782547 -1.13027,2.446343 -1.13028,2.446339 -1.40995,1.971114 -1.40995,1.97111 -1.87753,1.764406 -1.87752,1.76441 -0.75705,0.486102 -0.75705,0.486106 0.35705,3.282038 0.35705,3.282039 V 91.85255 95.36 h 13.6 13.6 v 2.160429 2.160425 l -0.63069,5.517636 -0.63068,5.51763 -0.84066,4.08059 -0.84067,4.08059 -1.09927,3.7827 -1.09928,3.7827 -0.29356,0.53865 -0.29356,0.53865 -1.49716,3.84 -1.49716,3.84 -1.87737,3.68 -1.87736,3.68 -1.21143,2.24 -1.21142,2.24 -1.94803,2.88 -1.94804,2.88 -2.67932,3.36 -2.67933,3.36 -3.8425,3.85858 -3.84251,3.85858 -2.91426,2.41324 -2.91425,2.41323 -2.68575,1.90384 -2.68574,1.90383 -2.9191,1.80116 -2.91909,1.80116 -3.64091,1.82617 -3.6409,1.82616 -3.62779,1.40227 -3.62779,1.40227 -3.25221,0.96904 -3.25221,0.96904 -2.88,0.64829 -2.88,0.64828 -4.16,0.63813 -4.159999,0.63813 -6.399999,0.11335 z m -0.64,-60.43517 7.999995,-0.078 2.5851,-0.85735 2.58509,-0.85735 1.99826,-1.29154 1.99826,-1.29154 1.56853,-1.56853 1.56853,-1.56853 1.2776,-1.97669 1.2776,-1.9767 0.67872,-1.80666 0.67873,-1.80666 0.45179,-2.34815 0.45179,-2.34815 V 103.52 96.696301 l -0.46215,-2.415456 -0.46215,-2.415459 -0.74942,-1.85537 -0.74942,-1.85537 -1.19544,-1.801011 -1.19544,-1.801011 -1.56864,-1.593574 -1.56864,-1.593575 -1.97398,-1.318176 -1.97399,-1.318179 -2.61036,-0.86424 -2.61037,-0.86424 -7.679995,-0.124925 -7.68,-0.124925 -2.24,0.474749 -2.239999,0.474752 -1.858823,0.699888 -1.858822,0.699888 -2.290589,1.723175 -2.290585,1.723174 -1.665994,2.077565 -1.665996,2.077561 -0.977677,2.009229 -0.977677,2.009229 -0.537952,1.92 -0.537952,1.92 -0.13752,7.71696 -0.13752,7.71697 0.479315,2.52303 0.479316,2.52304 0.679756,1.80666 0.679757,1.80666 1.277597,1.9767 1.277597,1.97669 1.568531,1.56853 1.568531,1.56853 1.962412,1.26837 1.96241,1.26837 2.002921,0.66652 2.002922,0.66653 1.418022,0.29203 1.418019,0.29203 z m -0.8,-31.910575 -3.68,-0.01987 -2.013238,-0.437162 -2.013242,-0.437165 -1.744799,-0.798796 -1.744804,-0.798797 -0.801958,-0.865328 -0.801958,-0.865341 V 92.8 91.613456 l 0.801958,-0.865328 0.801958,-0.865328 1.730909,-0.792435 1.730909,-0.792439 2.187133,-0.463404 2.187132,-0.463408 h 3.52 3.52 l 2.187132,0.463408 2.187133,0.463404 1.73091,0.792439 1.73091,0.792435 0.80196,0.865328 0.80195,0.865328 V 92.8 93.986544 l -0.80195,0.865328 -0.80196,0.865328 -1.73091,0.792435 -1.73091,0.792439 -2.187133,0.463404 -2.187132,0.463408 -3.68,-0.01987 z M 71.039996,79.04 h 0.594285 l 0.502857,-0.502858 0.502858,-0.502857 V 77.44 76.845715 L 72.137138,76.342858 71.634281,75.84 h -0.594285 -0.594285 l -0.502857,0.502858 -0.502858,0.502857 V 77.44 78.034285 l 0.502858,0.502857 0.502857,0.502858 z m 48.639994,0 h 0.59429 l 0.50286,-0.502858 0.50285,-0.502857 V 77.44 76.845715 L 120.77714,76.342858 120.27428,75.84 h -0.59429 -0.59428 l -0.50286,0.502858 -0.50286,0.502857 V 77.44 78.034285 l 0.50286,0.502857 0.50286,0.502858 z m -88.035408,-11.212096 0.195416,-0.0121 1.509344,-3.154858 1.509341,-3.15486 2.25119,-3.366586 2.25119,-3.366586 3.229799,-3.382848 3.229798,-3.382848 -0.910333,-0.378828 -0.910329,-0.378832 -2.72,-0.0013 -2.72,-0.0013 -1.838931,0.719126 -1.838931,0.719126 -1.707507,1.560567 -1.707509,1.560566 -0.991508,1.860256 -0.991507,1.860259 -0.397366,2.156586 -0.397366,2.156582 0.397366,2.156583 0.397366,2.156585 0.982531,1.843415 0.982531,1.843417 0.195415,-0.0121 z m 120.390828,0 0.19541,0.0121 0.98253,-1.843418 0.98254,-1.843414 0.39736,-2.156586 0.39737,-2.156582 -0.39737,-2.156582 -0.39736,-2.156586 -0.99151,-1.860259 -0.99151,-1.860256 -1.70751,-1.560567 -1.70751,-1.560566 -1.83893,-0.719126 -1.83893,-0.719127 -2.72,0.0013 -2.72,0.0013 -0.91033,0.378832 -0.91033,0.378829 3.2298,3.382848 3.2298,3.382848 2.25119,3.366586 2.25119,3.366585 1.50934,3.154861 1.50934,3.154858 0.19542,0.0121 z M 91.839995,31.68 H 23.940403 l 1.285951,-1.52 1.28595,-1.52 2.343847,-2.261714 2.343847,-2.261714 1.87049,-1.662584 1.870489,-1.662584 3.628272,-2.725185 3.628269,-2.725186 3.35823,-2.056053 3.358233,-2.056053 3.258602,-1.6352422 3.258601,-1.6352426 3.404406,-1.3941072 3.404407,-1.3941072 3.679999,-1.1131334 3.68,-1.1131334 3.68,-0.8164858 3.68,-0.8164858 3.84,-0.56089446 3.839999,-0.56089445 h 7.2 7.2 l 3.839995,0.56089445 3.84,0.56089446 3.68,0.8164858 3.68,0.8164858 3.68,1.1131334 3.68,1.1131334 3.40441,1.3941072 3.40441,1.3941072 3.2586,1.6352426 3.2586,1.6352422 3.35823,2.056053 3.35823,2.056053 3.62827,2.725186 3.62827,2.725185 1.87049,1.662584 1.87049,1.662584 2.34385,2.261714 2.34384,2.261714 1.28596,1.52 1.28595,1.52 z"
           id="path526" />
        <path
           style="fill:#966f55;stroke-width:0.32"
           d="m 93.279995,190.55475 -6.4,0.11334 -0.96,-0.1339 -0.96,-0.13391 -3.039999,-0.34097 -3.04,-0.34096 -4,-0.7952 -4,-0.79519 -3.36,-0.97362 -3.359999,-0.97362 -3.84,-1.45312 -3.84,-1.45313 -3.799062,-1.89928 -3.799066,-1.89929 -2.920934,-1.8023 -2.920937,-1.8023 -2.685747,-1.90383 -2.685747,-1.90384 -2.914253,-2.41323 -2.914253,-2.41324 -3.842507,-3.85858 -3.842508,-3.85858 -2.679323,-3.36 -2.679322,-3.36 -1.948039,-2.88 -1.948039,-2.88 -1.21142,-2.24 -1.21142,-2.24 -1.877369,-3.68 L 8.7226818,135.2 7.2255228,131.36 5.7283642,127.52 5.4348029,126.98135 5.1412416,126.4427 4.0419655,122.66 2.9426898,118.8773 2.1221824,114.87865 1.301675,110.88 0.83214411,107.04 0.36261316,103.2 0.13597446,99.28 -0.09066425,95.36 H 13.554667 27.199999 v -3.50745 -3.507449 l 0.357047,-3.282039 0.357048,-3.282038 -0.757048,-0.486106 -0.757047,-0.486102 -1.877525,-1.76441 L 22.64495,77.28 21.235,75.30889 19.82505,73.337776 18.694771,70.891437 17.564492,68.445094 16.949171,65.662547 16.33385,62.88 l -0.0069,-2.77185 -0.0069,-2.771849 0.460254,-2.40553 0.460253,-2.405526 0.992621,-2.478954 0.992621,-2.478953 1.399574,-2.103671 1.399573,-2.103667 2.083291,-2.054784 2.083292,-2.054781 1.70426,-1.090771 1.70426,-1.090771 1.76,-0.795495 1.76,-0.795497 2.56,-0.616707 2.56,-0.616711 h 2.88 2.88 l 2.659215,0.637507 2.65922,0.637508 2.30078,1.13014 2.300784,1.130144 1.566883,1.190109 1.56688,1.190109 0.403334,0.299574 0.403335,0.299578 2.862134,-0.877974 2.862138,-0.877978 2.527647,-0.450435 2.527648,-0.450435 h 23.199999 23.199994 l 2.52765,0.450435 2.52765,0.450435 2.86214,0.877978 2.86213,0.877974 0.40334,-0.299578 0.40333,-0.299574 1.56688,-1.190109 1.56688,-1.190109 2.30079,-1.130144 2.30078,-1.13014 2.65922,-0.637508 2.65921,-0.637507 h 2.88 2.88 l 2.56,0.616711 2.56,0.616707 1.76,0.795497 1.76,0.795495 1.70426,1.090771 1.70426,1.090771 2.08329,2.054781 2.0833,2.054784 1.39957,2.103667 1.39957,2.103671 0.99262,2.478953 0.99263,2.478954 0.46025,2.405526 0.46025,2.40553 -0.007,2.771849 -0.007,2.77185 -0.61532,2.782547 -0.61533,2.782547 -1.13027,2.446343 -1.13028,2.446339 -1.40995,1.971114 -1.40995,1.97111 -1.87753,1.764406 -1.87752,1.76441 -0.75705,0.486102 -0.75705,0.486106 0.35705,3.282038 0.35705,3.282039 V 91.85255 95.36 h 13.6 13.6 v 2.160429 2.160425 l -0.63069,5.517636 -0.63068,5.51763 -0.84066,4.08059 -0.84067,4.08059 -1.09927,3.7827 -1.09928,3.7827 -0.29356,0.53865 -0.29356,0.53865 -1.49716,3.84 -1.49716,3.84 -1.87737,3.68 -1.87736,3.68 -1.21143,2.24 -1.21142,2.24 -1.94803,2.88 -1.94804,2.88 -2.67932,3.36 -2.67933,3.36 -3.8425,3.85858 -3.84251,3.85858 -2.91426,2.41324 -2.91425,2.41323 -2.68575,1.90384 -2.68574,1.90383 -2.9191,1.80116 -2.91909,1.80116 -3.64091,1.82617 -3.6409,1.82616 -3.62779,1.40227 -3.62779,1.40227 -3.25221,0.96904 -3.25221,0.96904 -2.88,0.64829 -2.88,0.64828 -4.16,0.63813 -4.159999,0.63813 -6.399999,0.11335 z m -0.64,-60.43517 7.999995,-0.078 2.5851,-0.85735 2.58509,-0.85735 1.99826,-1.29154 1.99826,-1.29154 1.56853,-1.56853 1.56853,-1.56853 1.2776,-1.97669 1.2776,-1.9767 0.67872,-1.80666 0.67873,-1.80666 0.45179,-2.34815 0.45179,-2.34815 V 103.52 96.696301 l -0.46215,-2.415456 -0.46215,-2.415459 -0.74942,-1.85537 -0.74942,-1.85537 -1.19544,-1.801011 -1.19544,-1.801011 -1.56864,-1.593574 -1.56864,-1.593575 -1.97398,-1.318176 -1.97399,-1.318179 -2.61036,-0.86424 -2.61037,-0.86424 -7.679995,-0.124925 -7.68,-0.124925 -2.24,0.474749 -2.239999,0.474752 -1.858823,0.699888 -1.858822,0.699888 -2.290589,1.723175 -2.290585,1.723174 -1.665994,2.077565 -1.665996,2.077561 -0.977677,2.009229 -0.977677,2.009229 -0.537952,1.92 -0.537952,1.92 -0.13752,7.71696 -0.13752,7.71697 0.479315,2.52303 0.479316,2.52304 0.679756,1.80666 0.679757,1.80666 1.277597,1.9767 1.277597,1.97669 1.568531,1.56853 1.568531,1.56853 1.962412,1.26837 1.96241,1.26837 2.002921,0.66652 2.002922,0.66653 1.418022,0.29203 1.418019,0.29203 z m -0.8,-31.910575 -3.68,-0.01987 -2.013238,-0.437162 -2.013242,-0.437165 -1.744799,-0.798796 -1.744804,-0.798797 -0.801958,-0.865328 -0.801958,-0.865341 V 92.8 91.613456 l 0.801958,-0.865328 0.801958,-0.865328 1.730909,-0.792435 1.730909,-0.792439 2.187133,-0.463404 2.187132,-0.463408 h 3.52 3.52 l 2.187132,0.463408 2.187133,0.463404 1.73091,0.792439 1.73091,0.792435 0.80196,0.865328 0.80195,0.865328 V 92.8 93.986544 l -0.80195,0.865328 -0.80196,0.865328 -1.73091,0.792435 -1.73091,0.792439 -2.187133,0.463404 -2.187132,0.463408 -3.68,-0.01987 z M 71.039996,79.04 h 0.594285 l 0.502857,-0.502858 0.502858,-0.502857 V 77.44 76.845715 L 72.137138,76.342858 71.634281,75.84 h -0.594285 -0.594285 l -0.502857,0.502858 -0.502858,0.502857 V 77.44 78.034285 l 0.502858,0.502857 0.502857,0.502858 z m 48.639994,0 h 0.59429 l 0.50286,-0.502858 0.50285,-0.502857 V 77.44 76.845715 L 120.77714,76.342858 120.27428,75.84 h -0.59429 -0.59428 l -0.50286,0.502858 -0.50286,0.502857 V 77.44 78.034285 l 0.50286,0.502857 0.50286,0.502858 z m -88.035408,-11.212096 0.195416,-0.0121 1.509344,-3.154858 1.509341,-3.15486 2.25119,-3.366586 2.25119,-3.366586 3.229799,-3.382848 3.229798,-3.382848 -0.910333,-0.378828 -0.910329,-0.378832 -2.72,-0.0013 -2.72,-0.0013 -1.838931,0.719126 -1.838931,0.719126 -1.707507,1.560567 -1.707509,1.560566 -0.991508,1.860256 -0.991507,1.860259 -0.397366,2.156586 -0.397366,2.156582 0.397366,2.156583 0.397366,2.156585 0.982531,1.843415 0.982531,1.843417 0.195415,-0.0121 z m 120.390828,0 0.19541,0.0121 0.98253,-1.843418 0.98254,-1.843414 0.39736,-2.156586 0.39737,-2.156582 -0.39737,-2.156582 -0.39736,-2.156586 -0.99151,-1.860259 -0.99151,-1.860256 -1.70751,-1.560567 -1.70751,-1.560566 -1.83893,-0.719126 -1.83893,-0.719127 -2.72,0.0013 -2.72,0.0013 -0.91033,0.378832 -0.91033,0.378829 3.2298,3.382848 3.2298,3.382848 2.25119,3.366586 2.25119,3.366585 1.50934,3.154861 1.50934,3.154858 0.19542,0.0121 z M 91.839995,31.68 H 23.934099 l 4.27295,-4.241976 4.272949,-4.241975 3.52,-2.829099 3.52,-2.829098 4.025126,-2.67401 4.025126,-2.674011 3.654874,-1.919289 3.654873,-1.9192892 4.453936,-1.7868838 4.453936,-1.7868839 3.754137,-1.0909753 3.754137,-1.0909755 4.111926,-0.7941585 4.111927,-0.7941585 3.199999,-0.4002828 3.2,-0.40028285 h 5.92 5.92 l 3.199995,0.40028285 3.2,0.4002828 4.11193,0.7941585 4.11193,0.7941585 3.75413,1.0909755 3.75414,1.0909753 4.45394,1.7868839 4.45393,1.7868838 3.65488,1.9192892 3.65487,1.919289 4.02513,2.674011 4.02512,2.67401 3.52,2.829098 3.52,2.829099 4.27295,4.241975 4.27295,4.241976 z"
           id="path524" />
        <path
           style="fill:#e4511e;stroke-width:0.32"
           d="m 93.439995,190.54327 -5.28,0.1162 -1.28,-0.12722 -1.28,-0.12722 -3.039999,-0.34265 -3.04,-0.34265 -4.64,-0.92332 -4.64,-0.92333 -4.559321,-1.46873 -4.559322,-1.46874 -3.436259,-1.43967 -3.436255,-1.43966 -2.939565,-1.57065 -2.939561,-1.57065 -2.984858,-1.84591 -2.984857,-1.84592 -3.68,-2.77321 -3.68,-2.7732 -3.881721,-3.53705 -3.881721,-3.53705 -1.609221,-1.70152 -1.60922,-1.70151 -2.090185,-2.51411 -2.090184,-2.51411 -2.386109,-3.40569 -2.386109,-3.4057 -1.318608,-2.4 -1.318608,-2.4 -1.872815,-3.68 L 8.7226818,135.2 7.2255228,131.36 5.7283642,127.52 5.4348029,126.98135 5.1412416,126.4427 4.0419655,122.66 2.9426898,118.8773 2.1221824,114.87865 1.301675,110.88 0.83214411,107.04 0.36261316,103.2 0.13597446,99.28 -0.09066425,95.36 H 13.554667 27.199999 v -3.50745 -3.507449 l 0.357047,-3.282039 0.357048,-3.282038 -0.757048,-0.486106 -0.757047,-0.486102 -1.877525,-1.76441 L 22.64495,77.28 21.235,75.30889 19.82505,73.337776 18.694771,70.891437 17.564492,68.445094 16.949171,65.662547 16.33385,62.88 l -0.0069,-2.77185 -0.0069,-2.771849 0.460254,-2.40553 0.460253,-2.405526 0.992621,-2.478954 0.992621,-2.478953 1.399574,-2.103671 1.399573,-2.103667 2.083291,-2.054784 2.083292,-2.054781 1.70426,-1.090771 1.70426,-1.090771 1.76,-0.795495 1.76,-0.795497 2.56,-0.616707 2.56,-0.616711 h 2.88 2.88 l 2.659215,0.637507 2.65922,0.637508 2.30078,1.13014 2.300784,1.130144 1.566883,1.190109 1.56688,1.190109 0.403334,0.299574 0.403335,0.299578 2.862134,-0.877974 2.862138,-0.877978 2.527647,-0.450435 2.527648,-0.450435 h 23.199999 23.199994 l 2.52765,0.450435 2.52765,0.450435 2.86214,0.877978 2.86213,0.877974 0.40334,-0.299578 0.40333,-0.299574 1.56688,-1.190109 1.56688,-1.190109 2.30079,-1.130144 2.30078,-1.13014 2.65922,-0.637508 2.65921,-0.637507 h 2.88 2.88 l 2.56,0.616711 2.56,0.616707 1.76,0.795497 1.76,0.795495 1.70426,1.090771 1.70426,1.090771 2.08329,2.054781 2.0833,2.054784 1.39957,2.103667 1.39957,2.103671 0.99262,2.478953 0.99263,2.478954 0.46025,2.405526 0.46025,2.40553 -0.007,2.771849 -0.007,2.77185 -0.61532,2.782547 -0.61533,2.782547 -1.13027,2.446343 -1.13028,2.446339 -1.40995,1.971114 -1.40995,1.97111 -1.87753,1.764406 -1.87752,1.76441 -0.75705,0.486102 -0.75705,0.486106 0.35705,3.282038 0.35705,3.282039 V 91.85255 95.36 h 13.6 13.6 v 2.160429 2.160425 l -0.63069,5.517636 -0.63068,5.51763 -0.84066,4.08059 -0.84067,4.08059 -1.09927,3.7827 -1.09928,3.7827 -0.29356,0.53865 -0.29356,0.53865 -1.49716,3.84 -1.49716,3.84 -1.87668,3.68 -1.87668,3.68 -1.32203,2.4 -1.32203,2.4 -2.37882,3.4057 -2.37882,3.40569 -2.09019,2.51411 -2.09018,2.51411 -1.60922,1.70151 -1.60922,1.70152 -3.88172,3.53705 -3.88172,3.53705 -3.68,2.7732 -3.68,2.77321 -2.98486,1.84592 -2.98486,1.84591 -2.93956,1.57065 -2.93956,1.57065 -3.43626,1.43966 -3.43626,1.43967 -4.46134,1.43656 -4.46135,1.43655 -3.77798,0.7948 -3.77797,0.7948 -3.68,0.51438 -3.679999,0.51438 -5.279999,0.11619 z m -1.731187,-60.32089 7.708809,0.0176 2.467343,-0.63104 2.46734,-0.63104 2.30385,-1.20243 2.30384,-1.20242 2.43323,-2.42037 2.43323,-2.42036 1.49382,-3.02617 1.49382,-3.02617 0.46739,-2.24 0.4674,-2.24 v -7.68 -7.679997 l -0.47255,-2.230819 -0.47254,-2.23082 -1.07581,-2.24918 -1.07579,-2.249181 -1.50206,-1.985146 -1.50205,-1.985142 -1.98404,-1.5732 -1.98405,-1.573197 -1.71068,-0.862598 -1.71068,-0.862596 -2.42051,-0.619062 L 99.417617,76.8 h -7.577622 -7.577622 l -2.420505,0.619059 -2.420506,0.619063 -1.710681,0.862595 -1.710685,0.862598 -1.984042,1.573197 -1.984044,1.5732 -1.502051,1.985142 L 69.027804,86.88 67.952006,89.129181 66.876204,91.378362 66.403657,93.609181 65.93111,95.84 v 7.68 7.68 l 0.467395,2.24 0.467395,2.24 1.493824,3.02617 1.493821,3.02617 2.433225,2.42036 2.433226,2.42036 2.308969,1.20512 2.308967,1.20513 2.331033,0.61072 2.33103,0.61073 7.708813,0.0176 z m -0.0288,-32.022207 -3.2,-0.03499 -1.649059,-0.275504 -1.649062,-0.275507 -1.870938,-0.69617 -1.870941,-0.696173 -1.2,-1.193267 -1.2,-1.193267 V 92.8 91.764707 l 1.2,-1.193267 1.2,-1.193267 1.828285,-0.680211 1.828285,-0.680212 2.011715,-0.326457 2.011715,-0.326458 h 2.88 2.88 l 2.011715,0.326458 2.011715,0.326457 1.828282,0.680212 1.82829,0.680211 1.2,1.193267 1.2,1.193267 V 92.8 93.835293 l -1.2,1.193267 -1.2,1.193267 -1.82829,0.680211 -1.828282,0.680212 -2.011715,0.326457 -2.011715,0.326458 z M 71.039996,79.04 h 0.594285 l 0.502857,-0.502858 0.502858,-0.502857 V 77.44 76.845715 L 72.137138,76.342858 71.634281,75.84 h -0.594285 -0.594285 l -0.502857,0.502858 -0.502858,0.502857 V 77.44 78.034285 l 0.502858,0.502857 0.502857,0.502858 z m 48.639994,0 h 0.59429 l 0.50286,-0.502858 0.50285,-0.502857 V 77.44 76.845715 L 120.77714,76.342858 120.27428,75.84 h -0.59429 -0.59428 l -0.50286,0.502858 -0.50286,0.502857 V 77.44 78.034285 l 0.50286,0.502857 0.50286,0.502858 z M 33.450574,64.64704 35.184488,61.114083 36.844606,58.63704 38.504724,56.16 l 2.031133,-2.451085 2.031129,-2.451085 1.780839,-1.627584 1.780835,-1.627584 -0.90433,-0.387513 -0.904332,-0.387511 -3.04,-0.01382 -3.04,-0.01382 -1.868003,0.875117 -1.868,0.875117 -1.012,0.847126 -1.011997,0.847127 -1.195019,1.583257 -1.195019,1.583261 -0.644981,2.088205 -0.644981,2.088214 V 59.84 61.692586 l 0.631561,2.033705 0.631561,2.033709 0.82677,1.21 0.82677,1.209997 z M 152.56236,67.262515 153.28473,66.4 l 0.67783,-1.76 0.67783,-1.76 0.15998,-2.290336 0.15998,-2.290336 -0.67926,-2.236307 -0.67926,-2.236304 -1.20092,-1.591117 -1.20092,-1.591114 -1.01199,-0.847126 -1.012,-0.847126 -1.868,-0.875117 -1.86801,-0.875117 -3.04,0.01382 -3.04,0.01382 -0.90433,0.38751 -0.90433,0.387514 1.78084,1.627584 1.78083,1.627584 2.0403,2.451085 2.04031,2.451085 1.88319,2.887142 1.88319,2.887139 1.44,3.095373 1.44,3.095376 0.72237,-0.862515 z M 91.839995,31.68 H 23.934099 l 4.27295,-4.241976 4.272949,-4.241975 3.52,-2.829099 3.52,-2.829098 4.025126,-2.67401 4.025126,-2.674011 3.654874,-1.919289 3.654873,-1.9192892 4.453936,-1.7868838 4.453936,-1.7868839 3.754137,-1.0909753 3.754137,-1.0909755 4.111926,-0.7941585 4.111927,-0.7941585 3.199999,-0.4002828 3.2,-0.40028285 h 5.92 5.92 l 3.199995,0.40028285 3.2,0.4002828 4.11193,0.7941585 4.11193,0.7941585 3.75413,1.0909755 3.75414,1.0909753 4.45394,1.7868839 4.45393,1.7868838 3.65488,1.9192892 3.65487,1.919289 4.02513,2.674011 4.02512,2.67401 3.52,2.829098 3.52,2.829099 4.27295,4.241975 4.27295,4.241976 z"
           id="path522" />
        <path
           style="fill:#eb2124;stroke-width:0.32"
           d="m 93.439995,190.54327 -5.28,0.1162 -1.28,-0.12722 -1.28,-0.12722 -3.039999,-0.34265 -3.04,-0.34265 -4.64,-0.92332 -4.64,-0.92333 -4.559321,-1.46873 -4.559322,-1.46874 -3.436259,-1.43967 -3.436255,-1.43966 -2.939565,-1.57065 -2.939561,-1.57065 -2.984858,-1.84591 -2.984857,-1.84592 -3.68,-2.77321 -3.68,-2.7732 -3.881721,-3.53705 -3.881721,-3.53705 -1.609221,-1.70152 -1.60922,-1.70151 -2.090185,-2.51411 -2.090184,-2.51411 -2.386109,-3.40569 -2.386109,-3.4057 -1.318608,-2.4 -1.318608,-2.4 -1.872815,-3.68 L 8.7226818,135.2 7.2255228,131.36 5.7283642,127.52 5.4348029,126.98135 5.1412416,126.4427 4.0419655,122.66 2.9426898,118.8773 2.1221824,114.87865 1.301675,110.88 0.83214411,107.04 0.36261316,103.2 0.13597446,99.28 -0.09066425,95.36 H 13.554667 27.199999 v -3.50745 -3.507449 l 0.357047,-3.282039 0.357048,-3.282038 -0.757048,-0.486106 -0.757047,-0.486102 -1.877525,-1.76441 L 22.64495,77.28 21.235,75.30889 19.82505,73.337776 18.694305,70.890429 17.56356,68.443078 16.911125,65.501539 16.258691,62.56 l 0.164373,-3.68 0.164373,-3.68 0.686144,-2.387629 0.686144,-2.387625 1.484183,-2.892375 1.484183,-2.892371 3.055954,-3.053792 3.055954,-3.053792 2.559999,-1.316438 2.56,-1.316436 2.4,-0.749772 2.4,-0.74977 h 4.16 4.16 l 2.399999,0.74977 2.4,0.749772 2.4,1.247783 2.4,1.247782 1.42127,1.228906 1.421267,1.228905 2.810308,-0.903744 2.810307,-0.903747 2.968425,-0.481427 2.968422,-0.481427 h 22.559999 22.559995 l 2.96843,0.481427 2.96842,0.481427 2.81031,0.903747 2.81031,0.903744 1.42126,-1.228905 1.42127,-1.228906 2.4,-1.247782 2.4,-1.247783 2.4,-0.749772 2.4,-0.74977 h 4.16 4.16 l 2.4,0.74977 2.4,0.749772 2.56,1.316436 2.56,1.316438 3.05596,3.053792 3.05595,3.053792 1.48418,2.892371 1.48419,2.892375 0.68614,2.387625 0.68614,2.387629 0.16438,3.68 0.16437,3.68 -0.65244,2.941539 -0.65243,2.941539 -1.13075,2.447351 -1.13074,2.447347 -1.40995,1.971114 -1.40995,1.97111 -1.87753,1.764406 -1.87752,1.76441 -0.75704,0.486102 -0.75705,0.486106 0.35705,3.282038 0.35704,3.282039 V 91.85255 95.36 h 13.6 13.6 v 2.160429 2.160425 l -0.63068,5.517636 -0.63069,5.51763 -0.84066,4.08059 -0.84066,4.08059 -1.09927,3.7827 -1.09928,3.7827 -0.29356,0.53865 -0.29356,0.53865 -1.49716,3.84 -1.49716,3.84 -1.87669,3.68 -1.87668,3.68 -1.32203,2.4 -1.32202,2.4 -2.37882,3.4057 -2.37883,3.40569 -2.09018,2.51411 -2.09018,2.51411 -1.60923,1.70151 -1.60922,1.70152 -3.88172,3.53705 -3.88172,3.53705 -3.68,2.7732 -3.68,2.77321 -2.98486,1.84592 -2.98485,1.84591 -2.93956,1.57065 -2.93957,1.57065 -3.43625,1.43966 -3.43626,1.43967 -4.46135,1.43656 -4.46134,1.43655 -3.77798,0.7948 -3.77798,0.7948 -3.68,0.51438 -3.679995,0.51438 z m -1.731187,-60.32089 7.708809,0.0176 2.467343,-0.63104 2.46734,-0.63104 2.30385,-1.20243 2.30384,-1.20242 2.43323,-2.42037 2.43323,-2.42036 1.49382,-3.02617 1.49382,-3.02617 0.46739,-2.24 0.4674,-2.24 v -7.68 -7.679997 l -0.47255,-2.230819 -0.47254,-2.23082 -1.07581,-2.24918 -1.07579,-2.249181 -1.50206,-1.985146 -1.50205,-1.985142 -1.98404,-1.5732 -1.98405,-1.573197 -1.71068,-0.862598 -1.71068,-0.862596 -2.42051,-0.619062 L 99.417617,76.8 h -7.577622 -7.577622 l -2.420505,0.619059 -2.420506,0.619063 -1.710681,0.862595 -1.710685,0.862598 -1.984042,1.573197 -1.984044,1.5732 -1.502051,1.985142 L 69.027804,86.88 67.952006,89.129181 66.876204,91.378362 66.403657,93.609181 65.93111,95.84 v 7.68 7.68 l 0.467395,2.24 0.467395,2.24 1.493824,3.02617 1.493821,3.02617 2.433225,2.42036 2.433226,2.42036 2.308969,1.20512 2.308967,1.20513 2.331033,0.61072 2.33103,0.61073 7.708813,0.0176 z m -0.0288,-32.022207 -3.2,-0.03499 -1.649059,-0.275504 -1.649062,-0.275507 -1.870938,-0.69617 -1.870941,-0.696173 -1.2,-1.193267 -1.2,-1.193267 V 92.8 91.764707 l 1.2,-1.193267 1.2,-1.193267 1.828285,-0.680211 1.828285,-0.680212 2.011715,-0.326457 2.011715,-0.326458 h 2.88 2.88 l 2.011715,0.326458 2.011715,0.326457 1.828282,0.680212 1.82829,0.680211 1.2,1.193267 1.2,1.193267 V 92.8 93.835293 l -1.2,1.193267 -1.2,1.193267 -1.82829,0.680211 -1.828282,0.680212 -2.011715,0.326457 -2.011715,0.326458 z M 71.039996,79.04 h 0.594285 l 0.502857,-0.502858 0.502858,-0.502857 V 77.44 76.845715 L 72.137138,76.342858 71.634281,75.84 h -0.594285 -0.594285 l -0.502857,0.502858 -0.502858,0.502857 V 77.44 78.034285 l 0.502858,0.502857 0.502857,0.502858 z m 48.639994,0 h 0.59429 l 0.50286,-0.502858 0.50285,-0.502857 V 77.44 76.845715 L 120.77714,76.342858 120.27428,75.84 h -0.59429 -0.59428 l -0.50286,0.502858 -0.50286,0.502857 V 77.44 78.034285 l 0.50286,0.502857 0.50286,0.502858 z M 33.450574,64.64704 35.184488,61.114083 36.844606,58.63704 38.504724,56.16 l 2.031133,-2.451085 2.031129,-2.451085 1.780839,-1.627584 1.780835,-1.627584 -0.90433,-0.387513 -0.904332,-0.387511 -3.04,-0.01382 -3.04,-0.01382 -1.868003,0.875117 -1.868,0.875117 -1.012,0.847126 -1.011997,0.847127 -1.195019,1.583257 -1.195019,1.583261 -0.644981,2.088205 -0.644981,2.088214 V 59.84 61.692586 l 0.631561,2.033705 0.631561,2.033709 0.82677,1.21 0.82677,1.209997 z M 152.56236,67.262515 153.28473,66.4 l 0.67783,-1.76 0.67783,-1.76 0.15998,-2.290336 0.15998,-2.290336 -0.67926,-2.236307 -0.67926,-2.236304 -1.20092,-1.591117 -1.20092,-1.591114 -1.01199,-0.847126 -1.012,-0.847126 -1.868,-0.875117 -1.86801,-0.875117 -3.04,0.01382 -3.04,0.01382 -0.90433,0.38751 -0.90433,0.387514 1.78084,1.627584 1.78083,1.627584 2.0403,2.451085 2.04031,2.451085 1.88319,2.887142 1.88319,2.887139 1.44,3.095373 1.44,3.095376 0.72237,-0.862515 z M 91.839995,31.36 H 24.576674 l 1.711662,-1.976299 1.711662,-1.976298 3.36,-3.034929 3.36,-3.034929 2.88,-2.239562 2.88,-2.239563 3.631718,-2.379776 3.631718,-2.379775 3.568282,-1.873808 3.568281,-1.8738082 4.453936,-1.7868838 4.453936,-1.7868839 3.754137,-1.0909753 3.754137,-1.0909755 4.111926,-0.7941585 4.111927,-0.7941585 3.199999,-0.4002828 3.2,-0.40028285 h 5.92 5.92 l 3.199995,0.40028285 3.2,0.4002828 4.11193,0.7941585 4.11193,0.7941585 3.75413,1.0909755 3.75414,1.0909753 4.45394,1.7868839 4.45393,1.7868838 3.56828,1.8738082 3.56829,1.873808 3.63171,2.379775 3.63172,2.379776 2.88,2.239563 2.88,2.239562 3.36,3.034929 3.36,3.034929 1.71166,1.976298 1.71167,1.976299 z"
           id="path520" />
        <path
           style="fill:#3954a3;stroke-width:0.32"
           d="m 93.439995,190.54327 -5.28,0.1162 -1.28,-0.12722 -1.28,-0.12722 -3.039999,-0.34265 -3.04,-0.34265 -4.64,-0.92332 -4.64,-0.92333 -4.559321,-1.46873 -4.559322,-1.46874 -3.436259,-1.43967 -3.436255,-1.43966 -2.939565,-1.57065 -2.939561,-1.57065 -2.984858,-1.84591 -2.984857,-1.84592 -3.68,-2.77321 -3.68,-2.7732 -3.881721,-3.53705 -3.881721,-3.53705 -1.609221,-1.70152 -1.60922,-1.70151 -2.090185,-2.51411 -2.090184,-2.51411 -2.386109,-3.40569 -2.386109,-3.4057 -1.318608,-2.4 -1.318608,-2.4 -1.872815,-3.68 L 8.7226818,135.2 7.2255228,131.36 5.7283642,127.52 5.4348029,126.98135 5.1412416,126.4427 4.0419655,122.66 2.9426898,118.8773 2.1221824,114.87865 1.301675,110.88 0.83214411,107.04 0.36261316,103.2 0.13597446,99.28 -0.09066425,95.36 H 13.554667 27.199999 v -3.50745 -3.507449 l 0.357047,-3.282039 0.357048,-3.282038 -0.757048,-0.486106 -0.757047,-0.486102 -1.877525,-1.76441 L 22.64495,77.28 21.235,75.30889 19.82505,73.337776 18.694305,70.890429 17.56356,68.443078 16.911125,65.501539 16.258691,62.56 l 0.164373,-3.68 0.164373,-3.68 0.686144,-2.387629 0.686144,-2.387625 1.484183,-2.892375 1.484183,-2.892371 3.055954,-3.053792 3.055954,-3.053792 2.559999,-1.316438 2.56,-1.316436 2.4,-0.749772 2.4,-0.74977 h 4.16 4.16 l 2.399999,0.74977 2.4,0.749772 2.4,1.247783 2.4,1.247782 1.42127,1.228906 1.421267,1.228905 2.810308,-0.903744 2.810307,-0.903747 2.968425,-0.481427 2.968422,-0.481427 h 22.559999 22.559995 l 2.96843,0.481427 2.96842,0.481427 2.81031,0.903747 2.81031,0.903744 1.42126,-1.228905 1.42127,-1.228906 2.4,-1.247782 2.4,-1.247783 2.4,-0.749772 2.4,-0.74977 h 4.16 4.16 l 2.4,0.74977 2.4,0.749772 2.56,1.316436 2.56,1.316438 3.05596,3.053792 3.05595,3.053792 1.48418,2.892371 1.48419,2.892375 0.68614,2.387625 0.68614,2.387629 0.16438,3.68 0.16437,3.68 -0.65244,2.941539 -0.65243,2.941539 -1.13075,2.447351 -1.13074,2.447347 -1.40995,1.971114 -1.40995,1.97111 -1.87753,1.764406 -1.87752,1.76441 -0.75704,0.486102 -0.75705,0.486106 0.35705,3.282038 0.35704,3.282039 V 91.85255 95.36 h 13.6 13.6 v 2.160429 2.160425 l -0.63068,5.517636 -0.63069,5.51763 -0.84066,4.08059 -0.84066,4.08059 -1.09927,3.7827 -1.09928,3.7827 -0.29356,0.53865 -0.29356,0.53865 -1.49716,3.84 -1.49716,3.84 -1.87669,3.68 -1.87668,3.68 -1.32203,2.4 -1.32202,2.4 -2.37882,3.4057 -2.37883,3.40569 -2.09018,2.51411 -2.09018,2.51411 -1.60923,1.70151 -1.60922,1.70152 -3.88172,3.53705 -3.88172,3.53705 -3.68,2.7732 -3.68,2.77321 -2.98486,1.84592 -2.98485,1.84591 -2.93956,1.57065 -2.93957,1.57065 -3.43625,1.43966 -3.43626,1.43967 -4.46135,1.43656 -4.46134,1.43655 -3.77798,0.7948 -3.77798,0.7948 -3.68,0.51438 -3.679995,0.51438 z m -1.731187,-60.32089 7.708809,0.0176 2.467343,-0.63104 2.46734,-0.63104 2.30385,-1.20243 2.30384,-1.20242 2.43323,-2.42037 2.43323,-2.42036 1.49382,-3.02617 1.49382,-3.02617 0.46739,-2.24 0.4674,-2.24 v -7.68 -7.679997 l -0.47255,-2.230819 -0.47254,-2.23082 -1.07581,-2.24918 -1.07579,-2.249181 -1.50206,-1.985146 -1.50205,-1.985142 -1.98404,-1.5732 -1.98405,-1.573197 -1.71068,-0.862598 -1.71068,-0.862596 -2.42051,-0.619062 L 99.417617,76.8 h -7.577622 -7.577622 l -2.420505,0.619059 -2.420506,0.619063 -1.710681,0.862595 -1.710685,0.862598 -1.984042,1.573197 -1.984044,1.5732 -1.502051,1.985142 L 69.027804,86.88 67.952006,89.129181 66.876204,91.378362 66.403657,93.609181 65.93111,95.84 v 7.68 7.68 l 0.467395,2.24 0.467395,2.24 1.493824,3.02617 1.493821,3.02617 2.433225,2.42036 2.433226,2.42036 2.308969,1.20512 2.308967,1.20513 2.331033,0.61072 2.33103,0.61073 7.708813,0.0176 z m -0.0288,-32.022207 -3.2,-0.03499 -1.649059,-0.275504 -1.649062,-0.275507 -1.870938,-0.69617 -1.870941,-0.696173 -1.2,-1.193267 -1.2,-1.193267 V 92.8 91.764707 l 1.2,-1.193267 1.2,-1.193267 1.828285,-0.680211 1.828285,-0.680212 2.011715,-0.326457 2.011715,-0.326458 h 2.88 2.88 l 2.011715,0.326458 2.011715,0.326457 1.828282,0.680212 1.82829,0.680211 1.2,1.193267 1.2,1.193267 V 92.8 93.835293 l -1.2,1.193267 -1.2,1.193267 -1.82829,0.680211 -1.828282,0.680212 -2.011715,0.326457 -2.011715,0.326458 z M 71.039996,79.04 h 0.594285 l 0.502857,-0.502858 0.502858,-0.502857 V 77.44 76.845715 L 72.137138,76.342858 71.634281,75.84 h -0.594285 -0.594285 l -0.502857,0.502858 -0.502858,0.502857 V 77.44 78.034285 l 0.502858,0.502857 0.502857,0.502858 z m 48.639994,0 h 0.59429 l 0.50286,-0.502858 0.50285,-0.502857 V 77.44 76.845715 L 120.77714,76.342858 120.27428,75.84 h -0.59429 -0.59428 l -0.50286,0.502858 -0.50286,0.502857 V 77.44 78.034285 l 0.50286,0.502857 0.50286,0.502858 z M 33.450574,64.64704 35.184488,61.114083 36.844606,58.63704 38.504724,56.16 l 2.031133,-2.451085 2.031129,-2.451085 1.780839,-1.627584 1.780835,-1.627584 -0.90433,-0.387513 -0.904332,-0.387511 -3.04,-0.01382 -3.04,-0.01382 -1.868003,0.875117 -1.868,0.875117 -1.012,0.847126 -1.011997,0.847127 -1.195019,1.583257 -1.195019,1.583261 -0.644981,2.088205 -0.644981,2.088214 V 59.84 61.692586 l 0.631561,2.033705 0.631561,2.033709 0.82677,1.21 0.82677,1.209997 z M 152.56236,67.262515 153.28473,66.4 l 0.67783,-1.76 0.67783,-1.76 0.15998,-2.290336 0.15998,-2.290336 -0.67926,-2.236307 -0.67926,-2.236304 -1.20092,-1.591117 -1.20092,-1.591114 -1.01199,-0.847126 -1.012,-0.847126 -1.868,-0.875117 -1.86801,-0.875117 -3.04,0.01382 -3.04,0.01382 -0.90433,0.38751 -0.90433,0.387514 1.78084,1.627584 1.78083,1.627584 2.0403,2.451085 2.04031,2.451085 1.88319,2.887142 1.88319,2.887139 1.44,3.095373 1.44,3.095376 0.72237,-0.862515 z"
           id="path518" />
        <path
           style="fill:#936032;stroke-width:0.32"
           d="m 93.439995,190.54327 -5.28,0.1162 -1.28,-0.12722 -1.28,-0.12722 -3.039999,-0.34265 -3.04,-0.34265 -4.64,-0.92332 -4.64,-0.92333 -4.559321,-1.46873 -4.559322,-1.46874 -3.436259,-1.43967 -3.436255,-1.43966 -2.939565,-1.57065 -2.939561,-1.57065 -2.984858,-1.84591 -2.984857,-1.84592 -3.68,-2.77321 -3.68,-2.7732 -3.881721,-3.53705 -3.881721,-3.53705 -1.609221,-1.70152 -1.60922,-1.70151 -2.090185,-2.51411 -2.090184,-2.51411 -2.376499,-3.40569 -2.376499,-3.4057 -0.728844,-1.28937 -0.728844,-1.28937 2.484466,-6.71063 2.484465,-6.71063 0.762004,-1.83036 0.762004,-1.83036 V 127.52964 127.36 H 12.999182 5.8383642 l -0.3316941,-0.4 -0.3316944,-0.4 -1.116143,-3.84135 L 2.9426898,118.8773 2.1221824,114.87865 1.301675,110.88 0.83214411,107.04 0.36261316,103.2 0.13597446,99.28 -0.09066425,95.36 H 13.554667 27.199999 v -3.50745 -3.507449 l 0.357047,-3.282039 0.357048,-3.282038 -0.757048,-0.486106 -0.757047,-0.486102 -1.877525,-1.76441 L 22.64495,77.28 21.235,75.30889 19.82505,73.337776 18.694305,70.890429 17.56356,68.443078 16.911125,65.501539 16.258691,62.56 l 0.164373,-3.68 0.164373,-3.68 0.686144,-2.387629 0.686144,-2.387625 1.484183,-2.892375 1.484183,-2.892371 3.055954,-3.053792 3.055954,-3.053792 2.559999,-1.316438 2.56,-1.316436 2.4,-0.749772 2.4,-0.74977 h 4.16 4.16 l 2.399999,0.74977 2.4,0.749772 2.4,1.247783 2.4,1.247782 1.42127,1.228906 1.421267,1.228905 2.810308,-0.903744 2.810307,-0.903747 2.968425,-0.481427 2.968422,-0.481427 h 22.559999 22.559995 l 2.96843,0.481427 2.96842,0.481427 2.81031,0.903747 2.81031,0.903744 1.42126,-1.228905 1.42127,-1.228906 2.4,-1.247782 2.4,-1.247783 2.4,-0.749772 2.4,-0.74977 h 4.16 4.16 l 2.4,0.74977 2.4,0.749772 2.56,1.316436 2.56,1.316438 3.05596,3.053792 3.05595,3.053792 1.48418,2.892371 1.48419,2.892375 0.68614,2.387625 0.68614,2.387629 0.16438,3.68 0.16437,3.68 -0.65244,2.941539 -0.65243,2.941539 -1.13075,2.447351 -1.13074,2.447347 -1.40995,1.971114 -1.40995,1.97111 -1.87753,1.764406 -1.87752,1.76441 -0.75704,0.486102 -0.75705,0.486106 0.35705,3.282038 0.35704,3.282039 V 91.85255 95.36 h 13.6 13.6 v 2.160429 2.160425 l -0.63068,5.517636 -0.63069,5.51763 -0.84066,4.08059 -0.84066,4.08059 -1.11614,3.84135 -1.11615,3.84135 -0.33169,0.4 -0.33169,0.4 h -7.32082 -7.32082 v 0.27574 0.27574 l 1.00858,2.20426 1.00859,2.20426 2.35156,6.22171 2.35156,6.22171 -0.67256,1.29829 -0.67256,1.29829 -2.38646,3.4057 -2.38646,3.40569 -2.09018,2.51411 -2.09018,2.51411 -1.60923,1.70151 -1.60922,1.70152 -3.88172,3.53705 -3.88172,3.53705 -3.68,2.7732 -3.68,2.77321 -2.98486,1.84592 -2.98485,1.84591 -2.93956,1.57065 -2.93957,1.57065 -3.43625,1.43966 -3.43626,1.43967 -4.46135,1.43656 -4.46134,1.43655 -3.77798,0.7948 -3.77798,0.7948 -3.68,0.51438 -3.679995,0.51438 z m -1.731187,-60.32089 7.708809,0.0176 2.467343,-0.63104 2.46734,-0.63104 2.30385,-1.20243 2.30384,-1.20242 2.43323,-2.42037 2.43323,-2.42036 1.49382,-3.02617 1.49382,-3.02617 0.46739,-2.24 0.4674,-2.24 v -7.68 -7.679997 l -0.47255,-2.230819 -0.47254,-2.23082 -1.07581,-2.24918 -1.07579,-2.249181 -1.50206,-1.985146 -1.50205,-1.985142 -1.98404,-1.5732 -1.98405,-1.573197 -1.71068,-0.862598 -1.71068,-0.862596 -2.42051,-0.619062 L 99.417617,76.8 h -7.577622 -7.577622 l -2.420505,0.619059 -2.420506,0.619063 -1.710681,0.862595 -1.710685,0.862598 -1.984042,1.573197 -1.984044,1.5732 -1.502051,1.985142 L 69.027804,86.88 67.952006,89.129181 66.876204,91.378362 66.403657,93.609181 65.93111,95.84 v 7.68 7.68 l 0.467395,2.24 0.467395,2.24 1.493824,3.02617 1.493821,3.02617 2.433225,2.42036 2.433226,2.42036 2.308969,1.20512 2.308967,1.20513 2.331033,0.61072 2.33103,0.61073 7.708813,0.0176 z m -0.0288,-32.022207 -3.2,-0.03499 -1.649059,-0.275504 -1.649062,-0.275507 -1.870938,-0.69617 -1.870941,-0.696173 -1.2,-1.193267 -1.2,-1.193267 V 92.8 91.764707 l 1.2,-1.193267 1.2,-1.193267 1.828285,-0.680211 1.828285,-0.680212 2.011715,-0.326457 2.011715,-0.326458 h 2.88 2.88 l 2.011715,0.326458 2.011715,0.326457 1.828282,0.680212 1.82829,0.680211 1.2,1.193267 1.2,1.193267 V 92.8 93.835293 l -1.2,1.193267 -1.2,1.193267 -1.82829,0.680211 -1.828282,0.680212 -2.011715,0.326457 -2.011715,0.326458 z M 71.039996,79.04 h 0.594285 l 0.502857,-0.502858 0.502858,-0.502857 V 77.44 76.845715 L 72.137138,76.342858 71.634281,75.84 h -0.594285 -0.594285 l -0.502857,0.502858 -0.502858,0.502857 V 77.44 78.034285 l 0.502858,0.502857 0.502857,0.502858 z m 48.639994,0 h 0.59429 l 0.50286,-0.502858 0.50285,-0.502857 V 77.44 76.845715 L 120.77714,76.342858 120.27428,75.84 h -0.59429 -0.59428 l -0.50286,0.502858 -0.50286,0.502857 V 77.44 78.034285 l 0.50286,0.502857 0.50286,0.502858 z M 33.450574,64.64704 35.184488,61.114083 36.844606,58.63704 38.504724,56.16 l 2.031133,-2.451085 2.031129,-2.451085 1.780839,-1.627584 1.780835,-1.627584 -0.90433,-0.387513 -0.904332,-0.387511 -3.04,-0.01382 -3.04,-0.01382 -1.868003,0.875117 -1.868,0.875117 -1.012,0.847126 -1.011997,0.847127 -1.195019,1.583257 -1.195019,1.583261 -0.644981,2.088205 -0.644981,2.088214 V 59.84 61.692586 l 0.631561,2.033705 0.631561,2.033709 0.82677,1.21 0.82677,1.209997 z M 152.56236,67.262515 153.28473,66.4 l 0.67783,-1.76 0.67783,-1.76 0.15998,-2.290336 0.15998,-2.290336 -0.67926,-2.236307 -0.67926,-2.236304 -1.20092,-1.591117 -1.20092,-1.591114 -1.01199,-0.847126 -1.012,-0.847126 -1.868,-0.875117 -1.86801,-0.875117 -3.04,0.01382 -3.04,0.01382 -0.90433,0.38751 -0.90433,0.387514 1.78084,1.627584 1.78083,1.627584 2.0403,2.451085 2.04031,2.451085 1.88319,2.887142 1.88319,2.887139 1.44,3.095373 1.44,3.095376 0.72237,-0.862515 z"
           id="path516" />
        <path
           style="fill:#6f554f;stroke-width:0.32"
           d="m 93.439995,190.54327 -5.28,0.1162 -1.28,-0.12722 -1.28,-0.12722 -3.039999,-0.34265 -3.04,-0.34265 -4.64,-0.92332 -4.64,-0.92333 -4.559321,-1.46873 -4.559322,-1.46874 -3.436259,-1.43967 -3.436255,-1.43966 -2.939565,-1.57065 -2.939561,-1.57065 -2.984858,-1.84591 -2.984857,-1.84592 -3.68,-2.77321 -3.68,-2.7732 -3.881721,-3.53705 -3.881721,-3.53705 -1.609221,-1.70152 -1.60922,-1.70151 -2.090185,-2.51411 -2.090184,-2.51411 -2.376499,-3.40569 -2.376499,-3.4057 -0.728844,-1.28937 -0.728844,-1.28937 2.484466,-6.71063 2.484465,-6.71063 0.762004,-1.83036 0.762004,-1.83036 V 127.52964 127.36 H 12.999182 5.8383642 l -0.3316941,-0.4 -0.3316944,-0.4 -1.116143,-3.84135 L 2.9426898,118.8773 2.1221824,114.87865 1.301675,110.88 0.83214411,107.04 0.36261316,103.2 0.13597446,99.28 -0.09066425,95.36 H 13.506304 27.103273 L 27.324649,90.48 27.546024,85.6 27.799237,83.761571 28.05245,81.923142 25.769013,80.049018 23.485577,78.17489 21.937062,76.127443 20.388547,74.08 19.157523,71.52 17.926498,68.96 17.249987,66.4 l -0.676512,-2.56 -0.03713,-3.52 -0.03713,-3.52 0.579823,-2.56 0.579823,-2.56 1.361984,-2.88 1.361984,-2.88 1.546049,-2.040362 1.54605,-2.040361 2.074073,-1.710794 2.074075,-1.710793 2.446568,-1.272845 2.446568,-1.272845 2.541894,-0.714192 2.541891,-0.714189 h 3.52 3.52 l 2.493276,0.700851 2.493274,0.700855 2.14688,1.081152 2.146876,1.081149 1.972823,1.482998 1.972822,1.482995 2.347024,-0.784246 2.347024,-0.78425 2.719999,-0.58256 2.72,-0.582563 h 23.839999 23.839996 l 2.72,0.582563 2.72,0.58256 2.34703,0.78425 2.34702,0.784246 1.97282,-1.482995 1.97283,-1.482998 2.14687,-1.081149 2.14688,-1.081152 2.49328,-0.700855 2.49327,-0.700851 h 3.52 3.52 l 2.54189,0.714189 2.5419,0.714192 2.44656,1.272845 2.44657,1.272845 2.07408,1.710793 2.07407,1.710794 1.54605,2.040361 1.54605,2.040362 1.36198,2.88 1.36199,2.88 0.57982,2.56 0.57982,2.56 -0.0371,3.52 -0.0371,3.52 -0.67652,2.56 -0.67651,2.56 -1.23102,2.56 -1.23103,2.56 -1.54851,2.047443 -1.54852,2.047447 -2.28343,1.874128 -2.28344,1.874124 0.25321,1.838429 0.25322,1.838429 0.22137,4.88 0.22138,4.88 h 13.55163 13.55164 v 2.160429 2.160425 l -0.63068,5.517636 -0.63069,5.51763 -0.84066,4.08059 -0.84066,4.08059 -1.11614,3.84135 -1.11615,3.84135 -0.33169,0.4 -0.33169,0.4 h -7.32082 -7.32082 v 0.27574 0.27574 l 1.00858,2.20426 1.00859,2.20426 2.35156,6.22171 2.35156,6.22171 -0.67256,1.29829 -0.67256,1.29829 -2.38646,3.4057 -2.38646,3.40569 -2.09018,2.51411 -2.09018,2.51411 -1.60923,1.70151 -1.60922,1.70152 -3.88172,3.53705 -3.88172,3.53705 -3.68,2.7732 -3.68,2.77321 -2.98486,1.84592 -2.98485,1.84591 -2.93956,1.57065 -2.93957,1.57065 -3.43625,1.43966 -3.43626,1.43967 -4.46135,1.43656 -4.46134,1.43655 -3.77798,0.7948 -3.77798,0.7948 -3.68,0.51438 -3.679996,0.51438 z m -1.76,-60.33466 8,0.0219 2.079995,-0.48877 2.08,-0.48877 2.4,-1.17511 2.4,-1.1751 2.72575,-2.73139 2.72574,-2.7314 1.00705,-1.92 1.00705,-1.92 0.74721,-2.24 0.7472,-2.24 v -9.44 -9.44 l -0.44663,-1.6 -0.44664,-1.6 -1.40322,-2.756361 -1.40322,-2.756362 -1.76509,-1.950486 -1.76509,-1.95049 -2.32114,-1.55247 -2.32114,-1.552471 -2.38391,-0.780681 L 100.95999,76.96 h -9.119995 -9.12 l -2.383913,0.780678 -2.383917,0.780682 -2.321136,1.55247 -2.321135,1.552471 -1.765091,1.950489 -1.765092,1.950487 -1.403222,2.756361 -1.403222,2.756362 -0.446637,1.6 -0.446634,1.6 v 9.44 9.44 l 0.747207,2.24 0.747209,2.24 1.007047,1.92 1.007046,1.92 2.725744,2.7314 2.725747,2.73139 2.40391,1.17874 2.403907,1.17875 1.916093,0.4632 1.916089,0.4632 8,0.0219 z m 1.28,-32.126204 -4.16,0.124989 L 87.26101,97.92751 85.722027,97.647622 83.925608,97.082579 82.129189,96.517539 80.827298,95.524554 79.52541,94.531568 79.22093,93.665782 78.91645,92.8 l 0.301773,-0.846778 0.301773,-0.84678 1.130681,-0.913079 1.130685,-0.913075 1.800221,-0.63273 1.800224,-0.632726 2.349094,-0.367786 2.349094,-0.367788 3.52,0.188556 3.52,0.188557 1.678102,0.462349 1.678103,0.462352 1.43443,0.694394 1.43443,0.694396 0.80747,0.95962 0.80746,0.959622 V 92.8 93.710896 l -0.80746,0.959622 -0.80747,0.95962 -1.43443,0.694396 -1.43443,0.694394 -1.678103,0.469248 -1.678102,0.469245 z M 71.039996,79.04 h 0.594285 l 0.502857,-0.502858 0.502858,-0.502857 V 77.44 76.845715 L 72.137138,76.342858 71.634281,75.84 h -0.594285 -0.594285 l -0.502857,0.502858 -0.502858,0.502857 V 77.44 78.034285 l 0.502858,0.502857 0.502857,0.502858 z m 48.639994,0 h 0.59429 l 0.50286,-0.502858 0.50285,-0.502857 V 77.44 76.845715 L 120.77714,76.342858 120.27428,75.84 h -0.59429 -0.59428 l -0.50286,0.502858 -0.50286,0.502857 V 77.44 78.034285 l 0.50286,0.502857 0.50286,0.502858 z M 33.131656,65.376314 34.454597,62.56 l 1.374105,-2.23328 1.374102,-2.233283 1.873815,-2.461546 1.873817,-2.461545 2.564781,-2.54761 2.56478,-2.54761 v -0.165644 -0.165648 l -1.630889,-0.391245 -1.63089,-0.391245 -2.493484,0.144349 -2.493488,0.144345 -1.871539,0.915658 -1.871539,0.915661 -1.542282,1.542281 -1.542283,1.542282 -1.021802,2.15704 -1.021803,2.15704 v 3.36 3.36 l 0.894948,1.911322 0.894948,1.911318 0.529411,0.584992 0.52941,0.584992 z m 119.202124,2.291209 0.554,-0.501363 0.9161,-1.983078 L 154.71999,63.2 v -3.36 -3.36 l -1.0218,-2.15704 -1.0218,-2.15704 -1.54229,-1.542282 -1.54228,-1.542281 -1.87154,-0.915661 -1.87154,-0.915658 -2.49348,-0.144345 -2.49349,-0.144349 -1.63089,0.391245 -1.63089,0.391245 v 0.165648 0.165644 l 2.56478,2.54761 2.56478,2.54761 1.95737,2.571302 1.95737,2.571306 1.68583,2.852908 1.68584,2.852912 0.88191,2.075056 0.88191,2.075056 z"
           id="path514" />
        <path
           style="fill:#0b9948;stroke-width:0.32"
           d="m 93.759995,190.50114 -3.68,0.13356 -1.76,-0.11696 -1.76,-0.11696 -4.159999,-0.503 -4.16,-0.50301 -3.651386,-0.78296 -3.651388,-0.78296 -3.388611,-0.98709 -3.388614,-0.98709 -4.101655,-1.59836 -4.101654,-1.59836 -3.578345,-1.82564 -3.578346,-1.82563 -3.039999,-1.89176 -3.04,-1.89177 -3.738679,-2.81391 -3.738675,-2.8139 -3.301323,-2.98906 -3.301323,-2.98905 -2.406139,-2.52862 -2.406139,-2.52861 -2.426684,-3.04 -2.426683,-3.04 -1.761475,-2.56 -1.761476,-2.56 -0.822491,-1.44 -0.822492,-1.44 2.640528,-7.04 2.640528,-7.04 0.536262,-1.23908 0.536262,-1.23908 V 127.64092 127.36 H 12.999182 5.8383642 l -0.3316941,-0.4 -0.3316944,-0.4 -1.116143,-3.84135 L 2.9426898,118.8773 2.1221824,114.87865 1.301675,110.88 0.83214411,107.04 0.36261316,103.2 0.13597446,99.28 -0.09066425,95.36 H 13.506304 27.103273 L 27.324649,90.48 27.546024,85.6 27.799237,83.761571 28.05245,81.923142 25.769013,80.049018 23.485577,78.17489 21.937062,76.127443 20.388547,74.08 19.157523,71.52 17.926498,68.96 17.249987,66.4 l -0.676512,-2.56 -0.03713,-3.52 -0.03713,-3.52 0.579823,-2.56 0.579823,-2.56 1.361984,-2.88 1.361984,-2.88 1.546049,-2.040362 1.54605,-2.040361 2.074073,-1.710794 2.074075,-1.710793 2.446568,-1.272845 2.446568,-1.272845 2.541894,-0.714192 2.541891,-0.714189 h 3.52 3.52 l 2.493276,0.700851 2.493274,0.700855 2.14688,1.081152 2.146876,1.081149 1.972823,1.482998 1.972822,1.482995 2.347024,-0.784246 2.347024,-0.78425 2.719999,-0.58256 2.72,-0.582563 h 23.839999 23.839996 l 2.72,0.582563 2.72,0.58256 2.34703,0.78425 2.34702,0.784246 1.97282,-1.482995 1.97283,-1.482998 2.14687,-1.081149 2.14688,-1.081152 2.49328,-0.700855 2.49327,-0.700851 h 3.52 3.52 l 2.54189,0.714189 2.5419,0.714192 2.44656,1.272845 2.44657,1.272845 2.07408,1.710793 2.07407,1.710794 1.54605,2.040361 1.54605,2.040362 1.36198,2.88 1.36199,2.88 0.57982,2.56 0.57982,2.56 -0.0371,3.52 -0.0371,3.52 -0.67652,2.56 -0.67651,2.56 -1.23102,2.56 -1.23103,2.56 -1.54851,2.047443 -1.54852,2.047447 -2.28343,1.874128 -2.28344,1.874124 0.25321,1.838429 0.25322,1.838429 0.22137,4.88 0.22138,4.88 h 13.55163 13.55164 v 2.160429 2.160425 l -0.63068,5.517636 -0.63069,5.51763 -0.84066,4.08059 -0.84066,4.08059 -1.11614,3.84135 -1.11615,3.84135 -0.32695,0.39429 -0.32696,0.39429 -7.44697,0.0857 -7.44697,0.0857 1.41794,3.19902 1.41794,3.19902 1.90348,5.03155 1.90347,5.03155 v 0.61335 0.61335 l -2.429,3.63557 -2.42901,3.63558 -2.44486,3.0405 -2.44485,3.04051 -2.40614,2.52861 -2.40614,2.52862 -3.30132,2.98905 -3.30132,2.98906 -3.73868,2.8139 -3.73868,2.81391 -3.04,1.89177 -3.04,1.89176 -3.57834,1.82563 -3.57835,1.82564 -4.10165,1.59836 -4.10166,1.59836 -3.38861,0.98709 -3.38861,0.98709 -3.65139,0.78178 -3.65139,0.78178 -4,0.48758 -3.999996,0.48758 z m -2.073568,-60.27829 8.326433,0.0172 2.39129,-0.66266 2.39129,-0.66267 1.92228,-1.00482 1.92227,-1.00484 2.75638,-2.7325 2.75637,-2.73251 1.31035,-2.72 1.31036,-2.72 0.48854,-2.08 0.48854,-2.08 v -8.32 -8.320004 l -0.4809,-2.04008 -0.48091,-2.040083 -1.42716,-2.759917 -1.42716,-2.75992 -1.47307,-1.6812 -1.47306,-1.681196 -1.81414,-1.393456 -1.81414,-1.393456 -1.32727,-0.675156 -1.32728,-0.675155 -2.34629,-0.650189 L 100.01286,76.8 h -8.172865 -8.172864 l -2.346291,0.650192 -2.346291,0.650189 -1.327276,0.675155 -1.327277,0.675155 -1.814138,1.393456 -1.814134,1.393456 L 71.218655,83.9188 69.74559,85.6 68.318428,88.35992 66.89127,91.119837 66.410361,93.15992 65.929456,95.2 v 8.32 8.32 l 0.488544,2.08 0.488544,2.08 1.310351,2.72 1.310356,2.72 2.756374,2.72827 2.756371,2.72827 1.76,0.93989 1.76,0.9399 2.4,0.71469 2.399999,0.71469 8.326432,0.0171 z m 1.273568,-32.140444 -4.16,0.124989 L 87.26101,97.92751 85.722027,97.647622 83.925608,97.082579 82.129189,96.517539 80.827298,95.524554 79.52541,94.531568 79.22093,93.665782 78.91645,92.8 l 0.301773,-0.846778 0.301773,-0.84678 1.130681,-0.913079 1.130685,-0.913075 1.800221,-0.63273 1.800224,-0.632726 2.349094,-0.367786 2.349094,-0.367788 3.52,0.188556 3.52,0.188557 1.678102,0.462349 1.678103,0.462352 1.43443,0.694394 1.43443,0.694396 0.80747,0.95962 0.80746,0.959622 V 92.8 93.710896 l -0.80746,0.959622 -0.80747,0.95962 -1.43443,0.694396 -1.43443,0.694394 -1.678103,0.469248 -1.678102,0.469245 z M 71.039996,79.04 h 0.832 l 0.384,-0.384 0.384,-0.384 V 77.44 76.608 l -0.384,-0.384 -0.384,-0.384 h -0.832 -0.832 l -0.384,0.384 -0.384,0.384 v 0.832 0.832 l 0.384,0.384 0.384,0.384 z m 48.639994,0 h 0.832 l 0.384,-0.384 0.384,-0.384 V 77.44 76.608 l -0.384,-0.384 -0.384,-0.384 h -0.832 -0.832 l -0.384,0.384 -0.384,0.384 v 0.832 0.832 l 0.384,0.384 0.384,0.384 z m -88.062511,-10.884934 0.222519,-0.0049 1.492051,-3.136163 1.492052,-3.13616 2.324745,-3.476586 2.324745,-3.476588 3.303203,-3.419021 3.303203,-3.419024 v -0.171376 -0.171379 l -1.630889,-0.391245 -1.63089,-0.391245 -2.455443,0.142144 -2.455446,0.142144 -1.753664,0.812406 -1.753667,0.812407 -1.512851,1.34568 -1.512849,1.34568 -1.20715,2.442502 -1.20715,2.442499 V 59.84 63.233194 l 1.217481,2.463401 1.21748,2.463405 0.22252,-0.0049 z m 120.445031,0 0.22252,0.0049 1.21748,-2.463405 1.21748,-2.463402 V 59.839994 56.4468 l -1.20715,-2.442499 -1.20715,-2.442503 -1.51285,-1.34568 -1.51285,-1.34568 -1.75367,-0.812406 -1.75366,-0.812406 -2.45545,-0.142144 -2.45544,-0.142144 -1.63089,0.391244 -1.63089,0.391245 v 0.171379 0.171376 l 3.30321,3.419024 3.3032,3.419021 2.32474,3.476589 2.32475,3.476586 1.49205,3.13616 1.49205,3.136163 0.22252,0.0049 z"
           id="path512" />
        <path
           style="fill:#2b9522;stroke-width:0.32"
           d="m 93.759995,190.50114 -3.68,0.13356 -1.76,-0.11696 -1.76,-0.11696 -4.159999,-0.503 -4.16,-0.50301 -3.651386,-0.78296 -3.651388,-0.78296 -3.388611,-0.98709 -3.388614,-0.98709 -4.101655,-1.59836 -4.101654,-1.59836 -3.578345,-1.82564 -3.578346,-1.82563 -3.039999,-1.89176 -3.04,-1.89177 -3.738679,-2.81391 -3.738675,-2.8139 -3.301323,-2.98906 -3.301323,-2.98905 -2.406139,-2.52862 -2.406139,-2.52861 -2.426684,-3.04 -2.426683,-3.04 -1.761475,-2.56 -1.761476,-2.56 -0.822491,-1.44 -0.822492,-1.44 2.64953,-7.04 2.649531,-7.04 1.056161,-2.6947 1.056161,-2.69471 2.991098,-6.01914 2.991099,-6.01913 v -8.64273 -8.64272 l -13.68,-0.08696 L -0.15999999,95.512944 13.471636,95.436474 27.103273,95.36 27.324649,90.48 27.546024,85.6 27.799237,83.761571 28.05245,81.923142 25.769013,80.049018 23.485577,78.17489 21.937062,76.127443 20.388547,74.08 19.157523,71.52 17.926498,68.96 17.249987,66.4 l -0.676512,-2.56 -0.03713,-3.52 -0.03713,-3.52 0.579823,-2.56 0.579823,-2.56 1.361984,-2.88 1.361984,-2.88 1.546049,-2.040362 1.54605,-2.040361 2.074073,-1.710794 2.074075,-1.710793 2.446568,-1.272845 2.446568,-1.272845 2.541894,-0.714192 2.541891,-0.714189 h 3.52 3.52 l 2.493276,0.700851 2.493274,0.700855 2.14688,1.081152 2.146876,1.081149 1.972823,1.482998 1.972822,1.482995 2.347024,-0.784246 2.347024,-0.78425 2.719999,-0.58256 2.72,-0.582563 h 23.839999 23.839996 l 2.72,0.582563 2.72,0.58256 2.34703,0.78425 2.34702,0.784246 1.97282,-1.482995 1.97283,-1.482998 2.14687,-1.081149 2.14688,-1.081152 2.49328,-0.700855 2.49327,-0.700851 h 3.52 3.52 l 2.54189,0.714189 2.5419,0.714192 2.44656,1.272845 2.44657,1.272845 2.07408,1.710793 2.07407,1.710794 1.54605,2.040361 1.54605,2.040362 1.36198,2.88 1.36199,2.88 0.57982,2.56 0.57982,2.56 -0.0371,3.52 -0.0371,3.52 -0.67652,2.56 -0.67651,2.56 -1.23102,2.56 -1.23103,2.56 -1.54851,2.047443 -1.54852,2.047447 -2.28343,1.874128 -2.28344,1.874124 0.25321,1.838429 0.25322,1.838429 0.22122,4.876602 0.22122,4.876601 13.63179,0.08693 13.63179,0.08693 -13.68,0.07647 -13.68,0.07647 v 9.343887 9.3439 l 2.8516,5.6161 2.85159,5.61611 1.99313,4.64 1.99313,4.64 1.71528,4.56306 1.71527,4.56306 v 0.60086 0.60086 l -2.429,3.63557 -2.42901,3.63558 -2.44486,3.0405 -2.44485,3.04051 -2.40614,2.52861 -2.40614,2.52862 -3.30132,2.98905 -3.30132,2.98906 -3.73868,2.8139 -3.73868,2.81391 -3.04,1.89177 -3.04,1.89176 -3.57834,1.82563 -3.57835,1.82564 -4.10165,1.59836 -4.10166,1.59836 -3.38861,0.98709 -3.38861,0.98709 -3.65139,0.78178 -3.65139,0.78178 -4,0.48758 -3.999996,0.48758 z m -2.073568,-60.27829 8.326433,0.0172 2.39129,-0.66266 2.39129,-0.66267 1.92228,-1.00482 1.92227,-1.00484 2.75638,-2.7325 2.75637,-2.73251 1.31035,-2.72 1.31036,-2.72 0.48854,-2.08 0.48854,-2.08 v -8.32 -8.320004 l -0.4809,-2.04008 -0.48091,-2.040083 -1.42716,-2.759917 -1.42716,-2.75992 -1.47307,-1.6812 -1.47306,-1.681196 -1.81414,-1.393456 -1.81414,-1.393456 -1.32727,-0.675156 -1.32728,-0.675155 -2.34629,-0.650189 L 100.01286,76.8 h -8.172865 -8.172864 l -2.346291,0.650192 -2.346291,0.650189 -1.327276,0.675155 -1.327277,0.675155 -1.814138,1.393456 -1.814134,1.393456 L 71.218655,83.9188 69.74559,85.6 68.318428,88.35992 66.89127,91.119837 66.410361,93.15992 65.929456,95.2 v 8.32 8.32 l 0.488544,2.08 0.488544,2.08 1.310351,2.72 1.310356,2.72 2.756374,2.72827 2.756371,2.72827 1.76,0.93989 1.76,0.9399 2.4,0.71469 2.399999,0.71469 8.326432,0.0171 z m 1.273568,-32.140444 -4.16,0.124989 L 87.26101,97.92751 85.722027,97.647622 83.925608,97.082579 82.129189,96.517539 80.827298,95.524554 79.52541,94.531568 79.22093,93.665782 78.91645,92.8 l 0.301773,-0.846778 0.301773,-0.84678 1.130681,-0.913079 1.130685,-0.913075 1.800221,-0.63273 1.800224,-0.632726 2.349094,-0.367786 2.349094,-0.367788 3.52,0.188556 3.52,0.188557 1.678102,0.462349 1.678103,0.462352 1.43443,0.694394 1.43443,0.694396 0.80747,0.95962 0.80746,0.959622 V 92.8 93.710896 l -0.80746,0.959622 -0.80747,0.95962 -1.43443,0.694396 -1.43443,0.694394 -1.678103,0.469248 -1.678102,0.469245 z M 71.039996,79.04 h 0.832 l 0.384,-0.384 0.384,-0.384 V 77.44 76.608 l -0.384,-0.384 -0.384,-0.384 h -0.832 -0.832 l -0.384,0.384 -0.384,0.384 v 0.832 0.832 l 0.384,0.384 0.384,0.384 z m 48.639994,0 h 0.832 l 0.384,-0.384 0.384,-0.384 V 77.44 76.608 l -0.384,-0.384 -0.384,-0.384 h -0.832 -0.832 l -0.384,0.384 -0.384,0.384 v 0.832 0.832 l 0.384,0.384 0.384,0.384 z m -88.062511,-10.884934 0.222519,-0.0049 1.492051,-3.136163 1.492052,-3.13616 2.324745,-3.476586 2.324745,-3.476588 3.303203,-3.419021 3.303203,-3.419024 v -0.171376 -0.171379 l -1.630889,-0.391245 -1.63089,-0.391245 -2.455443,0.142144 -2.455446,0.142144 -1.753664,0.812406 -1.753667,0.812407 -1.512851,1.34568 -1.512849,1.34568 -1.20715,2.442502 -1.20715,2.442499 V 59.84 63.233194 l 1.217481,2.463401 1.21748,2.463405 0.22252,-0.0049 z m 120.445031,0 0.22252,0.0049 1.21748,-2.463405 1.21748,-2.463402 V 59.839994 56.4468 l -1.20715,-2.442499 -1.20715,-2.442503 -1.51285,-1.34568 -1.51285,-1.34568 -1.75367,-0.812406 -1.75366,-0.812406 -2.45545,-0.142144 -2.45544,-0.142144 -1.63089,0.391244 -1.63089,0.391245 v 0.171379 0.171376 l 3.30321,3.419024 3.3032,3.419021 2.32474,3.476589 2.32475,3.476586 1.49205,3.13616 1.49205,3.136163 0.22252,0.0049 z"
           id="path510" />
        <path
           style="fill:#654134;stroke-width:0.32"
           d="m 93.759995,190.50114 -3.68,0.13356 -1.76,-0.11696 -1.76,-0.11696 -4.159999,-0.503 -4.16,-0.50301 -3.651386,-0.78296 -3.651388,-0.78296 -3.388611,-0.98709 -3.388614,-0.98709 -4.101655,-1.59836 -4.101654,-1.59836 -3.578345,-1.82564 -3.578346,-1.82563 -3.039999,-1.89176 -3.04,-1.89177 -3.738679,-2.81391 -3.738675,-2.8139 -3.301323,-2.98906 -3.301323,-2.98905 -2.406139,-2.52862 -2.406139,-2.52861 -2.426684,-3.04 -2.426683,-3.04 -1.761475,-2.56 -1.761476,-2.56 -0.820637,-1.44 -0.820637,-1.44 2.501018,-6.72 2.501019,-6.72 1.504487,-3.52 1.504488,-3.52 2.652057,-5.31151 2.652057,-5.31151 L 27.308218,99.32849 27.491183,85.28 27.768382,83.598752 28.04558,81.917504 25.765578,80.046195 23.485577,78.17489 21.937062,76.127443 20.388547,74.08 19.157523,71.52 17.926498,68.96 17.249987,66.4 l -0.676512,-2.56 -0.03713,-3.52 -0.03713,-3.52 0.579823,-2.56 0.579823,-2.56 1.361984,-2.88 1.361984,-2.88 1.546049,-2.040362 1.54605,-2.040361 2.074073,-1.710794 2.074075,-1.710793 2.446568,-1.272845 2.446568,-1.272845 2.541894,-0.714192 2.541891,-0.714189 h 3.52 3.52 l 2.493276,0.700851 2.493274,0.700855 2.14688,1.081152 2.146876,1.081149 1.972823,1.482998 1.972822,1.482995 2.347024,-0.784246 2.347024,-0.78425 2.719999,-0.58256 2.72,-0.582563 h 23.839999 23.839996 l 2.72,0.582563 2.72,0.58256 2.34703,0.78425 2.34702,0.784246 1.97282,-1.482995 1.97283,-1.482998 2.14687,-1.081149 2.14688,-1.081152 2.49328,-0.700855 2.49327,-0.700851 h 3.52 3.52 l 2.54189,0.714189 2.5419,0.714192 2.44656,1.272845 2.44657,1.272845 2.07408,1.710793 2.07407,1.710794 1.54605,2.040361 1.54605,2.040362 1.36198,2.88 1.36199,2.88 0.57982,2.56 0.57982,2.56 -0.0371,3.52 -0.0371,3.52 -0.67652,2.56 -0.67651,2.56 -1.23102,2.56 -1.23103,2.56 -1.54851,2.047443 -1.54852,2.047447 -2.28,1.871305 -2.28,1.871309 0.27876,1.681248 0.27876,1.681248 0.18047,14.711338 0.18047,14.711342 2.34703,4.48866 2.34702,4.48866 2.26135,5.08807 2.26136,5.08807 1.91518,5.0625 1.91518,5.0625 v 0.61335 0.61335 l -2.429,3.63557 -2.42901,3.63558 -2.44486,3.0405 -2.44485,3.04051 -2.40614,2.52861 -2.40614,2.52862 -3.30132,2.98905 -3.30132,2.98906 -3.73868,2.8139 -3.73868,2.81391 -3.04,1.89177 -3.04,1.89176 -3.57834,1.82563 -3.57835,1.82564 -4.10165,1.59836 -4.10166,1.59836 -3.38861,0.98709 -3.38861,0.98709 -3.65139,0.78178 -3.65139,0.78178 -4,0.48758 -3.999996,0.48758 z m -2.073568,-60.27829 8.326433,0.0172 2.39129,-0.66266 2.39129,-0.66267 1.92228,-1.00482 1.92227,-1.00484 2.75638,-2.7325 2.75637,-2.73251 1.31035,-2.72 1.31036,-2.72 0.48854,-2.08 0.48854,-2.08 v -8.32 -8.320004 l -0.4809,-2.04008 -0.48091,-2.040083 -1.42716,-2.759917 -1.42716,-2.75992 -1.47307,-1.6812 -1.47306,-1.681196 -1.81414,-1.393456 -1.81414,-1.393456 -1.32727,-0.675156 -1.32728,-0.675155 -2.34629,-0.650189 L 100.01286,76.8 h -8.172865 -8.172864 l -2.346291,0.650192 -2.346291,0.650189 -1.327276,0.675155 -1.327277,0.675155 -1.814138,1.393456 -1.814134,1.393456 L 71.218655,83.9188 69.74559,85.6 68.318428,88.35992 66.89127,91.119837 66.410361,93.15992 65.929456,95.2 v 8.32 8.32 l 0.488544,2.08 0.488544,2.08 1.310351,2.72 1.310356,2.72 2.756374,2.72827 2.756371,2.72827 1.76,0.93989 1.76,0.9399 2.4,0.71469 2.399999,0.71469 8.326432,0.0171 z m 1.273568,-32.140444 -4.16,0.124989 L 87.26101,97.92751 85.722027,97.647622 83.925608,97.082579 82.129189,96.517539 80.827298,95.524554 79.52541,94.531568 79.22093,93.665782 78.91645,92.8 l 0.301773,-0.846778 0.301773,-0.84678 1.130681,-0.913079 1.130685,-0.913075 1.800221,-0.63273 1.800224,-0.632726 2.349094,-0.367786 2.349094,-0.367788 3.52,0.188556 3.52,0.188557 1.678102,0.462349 1.678103,0.462352 1.43443,0.694394 1.43443,0.694396 0.80747,0.95962 0.80746,0.959622 V 92.8 93.710896 l -0.80746,0.959622 -0.80747,0.95962 -1.43443,0.694396 -1.43443,0.694394 -1.678103,0.469248 -1.678102,0.469245 z M 71.039996,79.04 h 0.832 l 0.384,-0.384 0.384,-0.384 V 77.44 76.608 l -0.384,-0.384 -0.384,-0.384 h -0.832 -0.832 l -0.384,0.384 -0.384,0.384 v 0.832 0.832 l 0.384,0.384 0.384,0.384 z m 48.639994,0 h 0.832 l 0.384,-0.384 0.384,-0.384 V 77.44 76.608 l -0.384,-0.384 -0.384,-0.384 h -0.832 -0.832 l -0.384,0.384 -0.384,0.384 v 0.832 0.832 l 0.384,0.384 0.384,0.384 z m -88.062511,-10.884934 0.222519,-0.0049 1.492051,-3.136163 1.492052,-3.13616 2.324745,-3.476586 2.324745,-3.476588 3.303203,-3.419021 3.303203,-3.419024 v -0.171376 -0.171379 l -1.630889,-0.391245 -1.63089,-0.391245 -2.455443,0.142144 -2.455446,0.142144 -1.753664,0.812406 -1.753667,0.812407 -1.512851,1.34568 -1.512849,1.34568 -1.20715,2.442502 -1.20715,2.442499 V 59.84 63.233194 l 1.217481,2.463401 1.21748,2.463405 0.22252,-0.0049 z m 120.445031,0 0.22252,0.0049 1.21748,-2.463405 1.21748,-2.463402 V 59.839994 56.4468 l -1.20715,-2.442499 -1.20715,-2.442503 -1.51285,-1.34568 -1.51285,-1.34568 -1.75367,-0.812406 -1.75366,-0.812406 -2.45545,-0.142144 -2.45544,-0.142144 -1.63089,0.391244 -1.63089,0.391245 v 0.171379 0.171376 l 3.30321,3.419024 3.3032,3.419021 2.32474,3.476589 2.32475,3.476586 1.49205,3.13616 1.49205,3.136163 0.22252,0.0049 z"
           id="path508" />
        <path
           style="fill:#53362a;stroke-width:0.32"
           d="m 27.123823,149.94075 -0.08382,11.97335 -2.4,-2.75385 -2.4,-2.75384 -2.304243,-3.02266 -2.304243,-3.02265 -1.855757,-2.90028 -1.855757,-2.90028 0.09875,-0.36027 0.09875,-0.36027 1.927465,-5.28 1.927464,-5.28 1.924808,-4.64 1.924809,-4.64 2.608977,-5.24401 2.608978,-5.244 0.08382,12.2277 0.08382,12.2277 z m 131.036167,10.23322 -1.68,1.87378 0.006,-23.66387 0.006,-23.66388 0.98091,1.76 0.98091,1.76 1.60291,3.17322 1.60292,3.17321 2.24979,5.14679 2.2498,5.14678 1.72058,4.60021 1.72058,4.6002 v 0.42541 0.42541 l -2.53395,3.77439 -2.53395,3.77438 -2.34605,2.9101 -2.34605,2.91009 -1.68,1.87378 z m -66.319995,-61.974015 -2.72,-0.01773 L 86.844837,97.769172 84.569682,97.356123 82.591461,96.46835 80.613244,95.580577 79.82662,94.645729 79.039996,93.710894 V 92.8 91.889104 l 0.786624,-0.934848 0.786624,-0.934848 1.965104,-0.881888 1.965107,-0.881888 2.448271,-0.436653 2.448269,-0.436649 h 2.56 2.56 l 2.448269,0.436649 2.448271,0.436653 1.965105,0.881888 1.96511,0.881888 0.78662,0.934848 0.78662,0.934848 V 92.8 93.710896 l -0.78662,0.934848 -0.78662,0.934848 -1.96511,0.881888 -1.965105,0.881888 -2.448271,0.436653 -2.448269,0.436649 -2.72,-0.01773 z m -25.061563,-8.606982 -1.018436,-0.007 -1.292387,-0.587056 -1.292387,-0.587056 -1.291286,-1.466979 -1.29129,-1.466983 -0.376323,-1.256061 -0.376326,-1.256064 V 81.439987 79.91424 l 0.376326,-1.256064 0.376323,-1.256061 1.29129,-1.466982 1.291286,-1.466979 1.292387,-0.587056 1.292387,-0.587056 h 2.08 2.08 l 1.292387,0.587056 1.292387,0.587056 1.28641,1.46144 1.286413,1.46144 0.378771,1.224476 0.378771,1.224477 -0.877571,0.634647 -0.877568,0.634649 -1.531997,1.420362 -1.531996,1.420365 -1.388989,2.104988 -1.388992,2.104989 -0.220576,0.72 -0.220579,0.72 -1.018435,-0.007 z M 71.039996,79.04 h 0.832 l 0.384,-0.384 0.384,-0.384 V 77.44 76.608 l -0.384,-0.384 -0.384,-0.384 h -0.832 -0.832 l -0.384,0.384 -0.384,0.384 v 0.832 0.832 l 0.384,0.384 0.384,0.384 z m 46.021564,10.552973 -1.17844,0.007 -0.22058,-0.72 -0.22057,-0.72 -1.38899,-2.104989 -1.38899,-2.104989 -1.532,-1.426224 -1.532,-1.426221 -0.74296,-0.515004 -0.74297,-0.515005 0.39929,-1.33272 0.39929,-1.33272 1.29129,-1.466983 1.29129,-1.466979 1.29239,-0.587056 1.29238,-0.587056 h 2.08 2.08 l 1.29239,0.587056 1.29239,0.587056 1.29128,1.466979 1.29129,1.466983 0.37633,1.256061 0.37632,1.256064 v 1.525747 1.525747 l -0.37632,1.256064 -0.37633,1.256061 -1.29129,1.466982 -1.29128,1.466979 -1.29239,0.587056 -1.29239,0.587056 -1.17843,0.007 z M 119.67999,79.04 h 0.832 l 0.384,-0.384 0.384,-0.384 V 77.44 76.608 l -0.384,-0.384 -0.384,-0.384 h -0.832 -0.832 l -0.384,0.384 -0.384,0.384 v 0.832 0.832 l 0.384,0.384 0.384,0.384 z"
           id="path506" />
        <path
           style="fill:#010000;stroke-width:0.32"
           d="m 93.322139,98.052746 -3.242144,0.148051 -2.028403,-0.284115 -2.0284,-0.284116 -1.6516,-0.532368 -1.651597,-0.532364 -1.376111,-0.786848 -1.376112,-0.786848 -0.534112,-1.120048 -0.534115,-1.120045 0.630227,-1.168688 0.630224,-1.168691 1.76,-0.885274 1.759999,-0.885274 2.08,-0.540457 2.08,-0.540458 h 4.16 4.16 l 2.08,0.540458 2.079995,0.540457 1.76,0.885274 1.76,0.885274 0.64,1.191667 0.64,1.191667 -0.64,1.191667 -0.64,1.191667 -1.76,0.883716 -1.76,0.883718 -1.877851,0.476963 -1.877853,0.476967 z m -26.380907,-8.475293 -0.541236,-0.02256 -1.19888,-0.440314 -1.198883,-0.440313 -1.069507,-0.815754 -1.069507,-0.815754 -0.92945,-1.681385 -0.929449,-1.681386 v -2.24 -2.24 l 0.929449,-1.681385 0.92945,-1.681386 1.06329,-0.811011 1.063289,-0.811008 L 65.315129,73.74759 66.64046,73.28 h 1.199536 1.199536 l 1.325331,0.467603 1.325331,0.467607 1.06329,0.811008 1.06329,0.811011 0.851609,1.564691 0.851613,1.564691 v 0.351034 0.351033 L 72.550914,82.634339 69.581833,85.6 l -1.049683,2 -1.049683,2 -0.541235,-0.02256 z M 71.039996,79.04 h 0.832 l 0.384,-0.384 0.384,-0.384 V 77.44 76.608 l -0.384,-0.384 -0.384,-0.384 h -0.832 -0.832 l -0.384,0.384 -0.384,0.384 v 0.832 0.832 l 0.384,0.384 0.384,0.384 z M 116.77852,89.6 h -0.581 l -1.05301,-2 -1.05303,-2 -2.80574,-2.825946 -2.80575,-2.825945 V 79.45736 78.966611 l 0.85162,-1.564691 0.85161,-1.564691 1.06329,-0.811011 1.06329,-0.811008 1.32533,-0.467607 1.32533,-0.467603 h 1.19953 1.19954 l 1.32533,0.467603 1.32533,0.467607 1.06329,0.811008 1.06329,0.811011 0.92945,1.681385 0.92945,1.681386 v 2.24 2.24 l -0.92945,1.681386 -0.92945,1.681385 -1.06329,0.811011 -1.06329,0.811008 -1.32533,0.467607 L 117.35953,89.6 Z m 2.90147,-10.56 h 0.832 l 0.384,-0.384 0.384,-0.384 V 77.44 76.608 l -0.384,-0.384 -0.384,-0.384 h -0.832 -0.832 l -0.384,0.384 -0.384,0.384 v 0.832 0.832 l 0.384,0.384 0.384,0.384 z"
           id="path504" />
      </g>
      <ellipse
         style="fill:#ffffff"
         id="path544"
         cx="71.114166"
         cy="77.155899"
         rx="1.8224244"
         ry="1.7828065" />
      <ellipse
         style="fill:#ffffff"
         id="path544-1"
         cx="119.67964"
         cy="77.176865"
         rx="1.8224244"
         ry="1.7828065" />
      <circle
         style="fill:#ffffff"
         id="path570"
         sodipodi:type="arc"
         sodipodi:cx="119.49756"
         sodipodi:cy="77.274757"
         sodipodi:rx="0.68340915"
         sodipodi:ry="0.59426886"
         sodipodi:start="0"
         sodipodi:end="0.0073243266"
         sodipodi:arc-type="slice"
         d="m 120.18097,77.274757 a 0.68340915,0.59426886 0 0 1 -2e-5,0.0044 l -0.68339,-0.0044 z" />
    </g>
  </g>
</svg>
